<svg width="112" height="117" fill="none" xmlns="http://www.w3.org/2000/svg"><path fill-rule="evenodd" clip-rule="evenodd" d="M56.167 116.039c-4.03 0-7.817-1.637-10.664-4.61-2.846-2.969-4.412-6.915-4.415-11.119-.002-4.197 1.564-8.145 4.408-11.107.581-.609 1.24-1.17 2.141-1.82.223-.158.464-.312.716-.463a16.45 16.45 0 0 1 1.64-.904c.293-.138.58-.277.873-.392.56-.215 1.168-.402 1.815-.55 0 0 .53-.161.598-.178l3.408-.261c.402.02.836.08 1.29.14l.252.036c.168.016.308.031.449.033.055.005.11.005.165.01l.107.015.142.015c.25.007.503.014.752.014 5.772-.002 11.47-2.568 15.633-7.041 4.154-4.456 6.441-10.462 6.277-16.465l-.02-.733-.063-.08c-.003-.026-.003-.054-.005-.081-.01-.17-.019-.343-.035-.516l-.056-.505c-.03-.277-.066-.55-.075-.828l.234-3.404c.019-.083.135-.504.163-.63.191-.814.36-1.41.551-1.938.107-.316.238-.607.371-.91.24-.55.523-1.107.869-1.72l.065-.113c.117-.207.228-.412.366-.611.617-.938 1.165-1.645 1.744-2.25 2.85-2.972 6.638-4.609 10.665-4.609 4.025 0 7.807 1.635 10.653 4.602 5.873 6.13 5.873 16.114 0 22.251-.57.593-1.249 1.165-2.134 1.803-.171.123-.334.224-.497.327l-.264.17c-.504.313-1.053.612-1.588.868-.301.141-.585.277-.885.394a14.69 14.69 0 0 1-1.841.566c-.147.036-.266.075-.383.112-.082.022-.159.049-.239.068l-3.35.241c-.49-.021-1.02-.097-1.533-.168-.175-.022-.311-.028-.445-.037-.05-.002-.102-.002-.153-.01l-.285-.03a18.39 18.39 0 0 0-.744-.015c-5.776 0-11.476 2.567-15.643 7.04-4.15 4.461-6.436 10.462-6.268 16.47l.004.176.034.173c.032.177.039.36.05.538.012.185.026.366.045.543.011.15.033.34.051.524.03.266.061.534.068.8l-.248 3.451a45.15 45.15 0 0 1-.147.541 16.763 16.763 0 0 1-.552 1.974c-.101.282-.22.556-.342.841l-.041.099a17.65 17.65 0 0 1-.844 1.662c-.153.268-.305.531-.466.78-.591.893-1.147 1.606-1.742 2.232-2.832 2.957-6.609 4.589-10.632 4.589Z" fill="#4C98C0"/></svg>