<svg width="112" height="117" fill="none" xmlns="http://www.w3.org/2000/svg"><path fill-rule="evenodd" clip-rule="evenodd" d="M15.468 116.04c-4.026 0-7.813-1.638-10.664-4.608-2.846-2.969-4.412-6.916-4.41-11.119 0-4.2 1.571-8.15 4.419-11.12.596-.626 1.268-1.199 2.122-1.8.258-.188.496-.336.74-.492a20.419 20.419 0 011.633-.887c.282-.132.572-.268.877-.39a15.202 15.202 0 011.837-.567c.138-.04.26-.073.384-.11.077-.022.152-.049.23-.069l3.355-.238c.426.02.881.076 1.367.141l.191.027c.114.015.268.027.423.037l.136.01.153.031h.133c.245.01.49.014.733.014 5.783 0 11.491-2.57 15.663-7.048 4.153-4.458 6.442-10.457 6.277-16.46l-.004-.178-.033-.185c-.03-.167-.04-.338-.05-.506a13.867 13.867 0 00-.055-.605l-.037-.353a19.54 19.54 0 01-.084-.9l.257-3.512c.016-.088.047-.169.07-.253l.06-.217c.155-.666.32-1.333.561-1.979.124-.367.242-.638.371-.916a17.83 17.83 0 01.873-1.744c.142-.249.28-.5.445-.743.608-.926 1.161-1.635 1.736-2.235 2.846-2.97 6.63-4.604 10.662-4.604 4.025 0 7.814 1.632 10.662 4.6 5.87 6.132 5.865 16.112-.014 22.246-.594.621-1.268 1.192-2.124 1.803-.25.178-.488.326-.727.473-.54.338-1.087.638-1.631.899-.294.139-.589.28-.873.39-.577.224-1.188.413-1.83.564l-.362.106c-.083.024-.162.05-.243.073l-3.387.25a13.517 13.517 0 01-1.255-.132l-.3-.038a4.388 4.388 0 00-.418-.039l-.12-.012-.173-.034h-.135a18.13 18.13 0 00-.736-.013c-5.783 0-11.489 2.568-15.658 7.046-4.156 4.461-6.443 10.464-6.28 16.467l.005.179.032.177c.031.172.038.34.052.51.013.202.03.401.054.601.007.12.03.336.056.55.025.24.055.474.055.715v.085l-.243 3.367c-.015.071-.123.458-.153.58-.164.726-.348 1.37-.553 1.946a9.77 9.77 0 01-.36.889c-.262.598-.546 1.17-.869 1.753-.142.238-.31.518-.48.787a15.518 15.518 0 01-1.712 2.185c-2.84 2.967-6.623 4.605-10.649 4.605h-.002z" fill="#EDC128"/></svg>