<svg width="112" height="117" fill="none" xmlns="http://www.w3.org/2000/svg"><path fill-rule="evenodd" clip-rule="evenodd" d="M15.475 73.576c-4.027 0-7.812-1.635-10.658-4.603C1.97 66 .4 62.05.398 57.847c-.002-4.198 1.562-8.142 4.408-11.11.584-.61 1.263-1.184 2.136-1.813a17.676 17.676 0 0 1 2.363-1.374c.291-.139.581-.275.889-.394a13.94 13.94 0 0 1 1.802-.549l.383-.112c.07-.021.138-.046.209-.063l3.41-.256c.443.02.923.085 1.424.156l.105.015c.175.019.31.027.448.034.05.002.098.002.148.01l.146.026.138.005c.253.008.502.013.752.013 5.77 0 11.468-2.566 15.632-7.042 4.152-4.46 6.438-10.464 6.271-16.47l-.004-.172-.033-.17c-.035-.191-.04-.383-.051-.578a11.479 11.479 0 0 0-.035-.482l-.052-.485a8.805 8.805 0 0 1-.076-.873l.226-3.304.021-.075v-.066c.019-.075.142-.514.142-.514.192-.845.362-1.456.554-1.996.107-.297.24-.594.375-.901.245-.565.533-1.138.865-1.72l.051-.09c.13-.227.26-.453.406-.68.597-.904 1.146-1.61 1.72-2.207C48.02 1.638 51.806 0 55.836 0c4.027 0 7.812 1.635 10.66 4.605 5.874 6.132 5.869 16.114-.007 22.244-.581.609-1.274 1.196-2.123 1.796-.23.17-.43.292-.635.419l-.111.068a16.979 16.979 0 0 1-2.489 1.281 14.23 14.23 0 0 1-1.842.568c-.142.036-.271.075-.4.112-.076.022-.155.048-.235.068l-3.34.244c-.423-.022-.876-.08-1.351-.144l-.205-.026c-.154-.02-.297-.027-.434-.037-.055-.002-.112-.002-.167-.012l-.113-.015-.147-.012c-.25-.01-.497-.015-.747-.015-5.77 0-11.47 2.566-15.635 7.037-4.154 4.46-6.442 10.466-6.278 16.474l.005.175.03.174c.036.175.042.357.054.536.011.184.025.365.044.55.014.146.035.333.056.52.028.262.061.52.065.782l-.24 3.427c-.018.087-.047.177-.072.27l-.085.308a16.118 16.118 0 0 1-.546 1.973c-.107.297-.245.604-.383.918a17.499 17.499 0 0 1-.854 1.694c-.156.272-.302.528-.458.77-.618.935-1.151 1.622-1.732 2.224-2.846 2.968-6.625 4.6-10.646 4.6Z" fill="#4C98C0"/></svg>