<svg width="91" height="91" fill="none" xmlns="http://www.w3.org/2000/svg"><circle cx="45.5" cy="45.5" r="33.5" fill="#023869"/><circle cx="45.5" cy="45.5" r="39.5" stroke="#023869" stroke-opacity=".12" stroke-width="12"/><path d="M46.474 57.36c5.436 0 9.252-2.808 9.252-7.812 0-4.464-2.88-6.3-7.992-7.632-4.356-1.116-5.436-1.656-5.436-3.312 0-1.296 1.116-2.268 3.24-2.268s4.32.936 6.552 2.484l2.88-4.176c-2.556-2.052-5.688-3.204-9.36-3.204-5.148 0-8.82 3.024-8.82 7.596 0 5.076 3.276 6.48 8.352 7.776 4.212 1.08 5.076 1.8 5.076 3.204 0 1.548-1.368 2.448-3.636 2.448-2.88 0-5.256-1.188-7.524-3.06l-3.276 3.924c3.024 2.7 6.876 4.032 10.692 4.032Z" fill="#fff"/></svg>