<svg width="20" height="19" fill="none" xmlns="http://www.w3.org/2000/svg"><path d="M1.527 18h16.945a.528.528 0 00.528-.527c0-3.722-4.275-5.422-6.168-5.991 1.125-1.3 1.838-3.239 1.838-5.013C14.67 3.453 12.561 1 9.968 1S5.264 3.453 5.264 6.469c0 1.781.72 3.728 1.853 5.028C5.198 12.082 1 13.784 1 17.473c0 .29.236.527.527.527zm8.44-15.946c2.012 0 3.648 1.98 3.648 4.415 0 2.462-1.683 5.468-3.648 5.468-1.964 0-3.648-3.007-3.648-5.468 0-2.435 1.636-4.415 3.648-4.415zM8.035 12.337c.586.41 1.238.655 1.932.655.701 0 1.358-.25 1.95-.667.962.241 5.512 1.545 5.987 4.62H2.095c.467-3.027 4.883-4.337 5.94-4.608z" fill="#023869" stroke="#023869" stroke-width=".5"/></svg>