<svg width="20" height="20" fill="none" xmlns="http://www.w3.org/2000/svg"><path d="M15.697 11.747l-.001-.001c-.71-.704-1.664-.704-2.375 0a97.31 97.31 0 00-1.284 1.285 8.611 8.611 0 00-.317-.16c-.16-.078-.32-.156-.47-.25-1.132-.71-2.171-1.657-3.177-2.895-.51-.628-.859-1.18-1.104-1.758.428-.416.849-.84 1.267-1.264.74-.745.738-1.673-.004-2.422-.339-.343-.683-.688-1.026-1.026l-.35-.35c-.235-.236-.47-.473-.71-.71-.725-.706-1.658-.706-2.377.002l-.51.51c-.262.266-.525.531-.792.787A2.497 2.497 0 001.69 5.17c-.061.843.09 1.698.492 2.77.618 1.658 1.56 3.23 2.88 4.804a17.845 17.845 0 005.904 4.618c1.236.603 2.298.91 3.343.966.074.004.146.006.216.006.87 0 1.554-.293 2.089-.892.25-.278.52-.54.79-.8l.392-.385c.727-.734.73-1.68.007-2.41l-2.105-2.099zm1.584 3.998c-.127.127-.255.251-.383.376-.282.273-.563.546-.825.838-.428.48-.98.681-1.726.646-.945-.051-1.919-.335-3.066-.895a17.131 17.131 0 01-5.664-4.432c-1.267-1.51-2.17-3.013-2.758-4.592-.363-.97-.501-1.73-.448-2.464.036-.487.218-.881.557-1.203.272-.261.539-.53.806-.8.167-.17.335-.34.503-.506.219-.215.45-.322.68-.322.23 0 .462.107.682.322.237.234.47.468.704.702l.353.355c.342.337.684.679 1.022 1.021.463.468.465.94.004 1.403-.426.431-.851.862-1.286 1.282-.216.208-.265.45-.149.742.265.638.653 1.262 1.224 1.965 1.057 1.3 2.154 2.299 3.355 3.053.172.107.354.197.536.286.113.055.226.11.336.17.2.11.5.176.796-.131.426-.44.861-.87 1.296-1.3.432-.429.925-.428 1.356-.001l2.103 2.098c.441.445.438.938-.008 1.387z" fill="#023869" stroke="#023869" stroke-width=".8"/></svg>