<svg width="28" height="23" fill="none" xmlns="http://www.w3.org/2000/svg"><path fill-rule="evenodd" clip-rule="evenodd" d="M25.137 5.726c.01.25.017.502.017.754 0 7.674-5.777 16.52-16.348 16.52A16.12 16.12 0 010 20.393c.45.054.907.081 1.37.081 2.693 0 5.17-.928 7.136-2.485-2.514-.047-4.636-1.726-5.367-4.034a5.729 5.729 0 002.594-.098c-2.628-.532-4.608-2.879-4.608-5.694l.001-.073c.774.434 1.66.696 2.601.725a5.82 5.82 0 01-2.555-4.832c0-1.065.283-2.063.778-2.921 2.832 3.514 7.067 5.825 11.84 6.07a5.856 5.856 0 01-.147-1.325C13.643 2.601 16.214 0 19.387 0c1.652 0 3.143.705 4.193 1.833 1.31-.26 2.537-.741 3.65-1.41a5.822 5.822 0 01-2.53 3.214 11.326 11.326 0 003.3-.913 11.627 11.627 0 01-2.863 3.002z" fill="#fff"/></svg>