<svg width="24" height="24" fill="none" xmlns="http://www.w3.org/2000/svg"><path d="m18.826 14.097-.002-.002c-.85-.845-1.997-.845-2.85 0-.508.502-1.017 1.006-1.54 1.542a10.16 10.16 0 0 0-.38-.192c-.193-.094-.386-.187-.565-.299-1.358-.853-2.605-1.99-3.813-3.475-.611-.753-1.03-1.417-1.324-2.11.514-.499 1.018-1.008 1.52-1.516.888-.894.886-2.008-.004-2.906-.407-.413-.82-.826-1.232-1.231l-.42-.422c-.282-.283-.563-.566-.852-.851-.87-.847-1.99-.847-2.852.003-.205.202-.408.408-.612.612-.315.32-.63.637-.95.944-.56.534-.875 1.21-.934 2.008-.073 1.013.109 2.038.59 3.324.742 1.99 1.873 3.876 3.457 5.766a21.41 21.41 0 0 0 7.084 5.54c1.484.724 2.758 1.093 4.012 1.16.088.005.175.008.26.008 1.042 0 1.864-.352 2.506-1.07.3-.334.623-.648.947-.962.157-.153.314-.305.47-.46.873-.882.878-2.016.01-2.892l-2.526-2.52Zm1.9 4.797a38.88 38.88 0 0 1-.459.45c-.338.328-.676.656-.99 1.006-.514.577-1.177.818-2.072.775-1.133-.06-2.302-.402-3.678-1.073a20.556 20.556 0 0 1-6.798-5.318c-1.52-1.813-2.603-3.616-3.31-5.511-.435-1.164-.6-2.076-.537-2.957.044-.584.262-1.057.668-1.444.327-.313.647-.636.968-.96.2-.203.402-.407.604-.606.262-.258.538-.387.815-.387.278 0 .555.129.819.386.285.282.565.562.844.843l.425.425c.41.406.82.816 1.226 1.226.555.561.557 1.128.004 1.684a94.672 94.672 0 0 1-1.543 1.538c-.26.25-.318.54-.178.89.317.765.784 1.515 1.468 2.358 1.269 1.56 2.585 2.759 4.027 3.664.206.128.424.236.643.343.135.066.27.132.403.204.24.132.6.212.955-.157.511-.527 1.033-1.044 1.555-1.56.518-.515 1.11-.514 1.628-.002l2.523 2.518c.53.534.526 1.126-.01 1.665Z" fill="#023869" stroke="#023869" stroke-width=".8"/></svg>