<svg width="97" height="97" fill="none" xmlns="http://www.w3.org/2000/svg"><path fill-rule="evenodd" clip-rule="evenodd" d="M48.5 82C67.001 82 82 67.001 82 48.5 82 29.998 67.001 15 48.5 15 29.998 15 15 29.998 15 48.5 15 67.001 29.998 82 48.5 82Z" fill="#023869"/><path d="M48.5 89.5c22.644 0 41-18.356 41-41s-18.356-41-41-41-41 18.356-41 41 18.356 41 41 41Z" stroke="#023869" stroke-opacity=".12" stroke-width="15"/><path d="M62.85 37.872c-.27.039-.52.167-.71.364-6.306 6.32-12.049 12.57-18.264 18.84l-8.318-6.651a1.227 1.227 0 1 0-1.533 1.917l9.2 7.359a1.227 1.227 0 0 0 1.628-.096C51.42 53.024 57.35 46.51 63.867 39.98a1.227 1.227 0 0 0-1.016-2.108Z" fill="#fff"/></svg>