<svg width="29" height="29" fill="none" xmlns="http://www.w3.org/2000/svg"><path d="M25.526 13.94a1.042 1.042 0 00-1.097-.995 1.06 1.06 0 00-1.006 1.1 8.398 8.398 0 01-1.568 5.262 8.475 8.475 0 01-4.49 3.19 8.428 8.428 0 01-5.492-.245 8.33 8.33 0 01-4.145-3.578 8.33 8.33 0 01-1.025-5.378 8.429 8.429 0 012.533-4.879 8.476 8.476 0 015.008-2.293 8.398 8.398 0 015.34 1.273 1.049 1.049 0 00.794.14 1.06 1.06 0 00.814-.842 1.047 1.047 0 00-.465-1.068 10.498 10.498 0 00-6.676-1.59 10.594 10.594 0 00-6.26 2.867 10.536 10.536 0 00-3.165 6.099 10.412 10.412 0 001.282 6.722 10.413 10.413 0 005.18 4.471c2.185.867 4.603.975 6.865.308a10.595 10.595 0 005.613-3.987 10.498 10.498 0 001.96-6.576z" fill="#fff"/></svg>