<svg width="17" height="17" fill="none" xmlns="http://www.w3.org/2000/svg"><path d="M13.563 10.29l-.001-.001c-.654-.649-1.534-.649-2.189 0-.39.386-.781.773-1.183 1.184a7.978 7.978 0 00-.292-.147c-.148-.072-.296-.144-.434-.23-1.043-.655-2-1.528-2.928-2.669-.47-.578-.791-1.088-1.017-1.62a80.14 80.14 0 001.168-1.164c.681-.687.68-1.543-.004-2.233-.313-.316-.63-.633-.946-.945l-.323-.324c-.216-.217-.432-.434-.654-.653-.668-.651-1.528-.65-2.19.002-.158.155-.314.313-.47.47-.242.245-.484.49-.73.725-.43.41-.672.929-.717 1.542-.057.778.084 1.565.453 2.553.57 1.528 1.438 2.977 2.655 4.428a16.444 16.444 0 005.44 4.255c1.14.556 2.119.84 3.082.891.067.004.134.006.199.006.8 0 1.432-.27 1.925-.822.23-.256.479-.497.728-.739l.36-.353c.671-.677.674-1.548.008-2.22l-1.94-1.936zm1.46 3.685l-.353.346c-.26.251-.52.503-.76.772-.395.443-.904.628-1.592.595-.87-.047-1.768-.309-2.825-.824a15.788 15.788 0 01-5.22-4.085c-1.168-1.392-2-2.777-2.542-4.232-.335-.894-.462-1.594-.413-2.27a1.64 1.64 0 01.513-1.11c.251-.24.497-.488.743-.737.155-.156.309-.312.464-.466.202-.198.414-.297.627-.297.212 0 .425.1.628.297.219.216.434.432.649.647l.325.327c.316.311.63.626.942.941.427.431.428.866.004 1.294-.392.396-.785.793-1.185 1.18-.2.193-.245.415-.138.684.244.588.603 1.164 1.128 1.811.974 1.198 1.985 2.119 3.093 2.814.158.099.325.181.493.263.105.051.208.102.31.157.185.102.461.163.734-.12.392-.405.793-.802 1.194-1.199.398-.395.852-.394 1.25 0l1.938 1.933c.406.41.404.864-.008 1.279z" fill="#ABB2BA" stroke="#ABB2BA"/></svg>