<svg width="26" height="26" fill="none" xmlns="http://www.w3.org/2000/svg"><path d="m21.191 15.516-.002-.002c-1.021-1.014-2.397-1.014-3.42 0-.61.603-1.22 1.207-1.848 1.85a12.39 12.39 0 0 0-.457-.23c-.23-.112-.462-.224-.678-.359-1.629-1.023-3.126-2.387-4.574-4.17-.734-.904-1.237-1.7-1.59-2.532.617-.598 1.222-1.21 1.825-1.819 1.065-1.073 1.063-2.41-.005-3.488A160.8 160.8 0 0 0 8.963 3.29l-.505-.506c-.338-.339-.676-.68-1.022-1.021C6.393.745 5.05.746 4.014 1.765c-.246.243-.49.49-.734.735a58.35 58.35 0 0 1-1.14 1.133c-.672.64-1.05 1.451-1.121 2.41-.088 1.214.13 2.445.708 3.989.89 2.387 2.247 4.65 4.149 6.918a25.695 25.695 0 0 0 8.5 6.65c1.78.868 3.31 1.31 4.815 1.39.106.007.21.01.311.01 1.252 0 2.238-.423 3.008-1.285.36-.4.748-.777 1.137-1.153.188-.184.377-.367.564-.553 1.048-1.058 1.053-2.42.011-3.47l-3.031-3.023Zm2.28 5.757c-.182.182-.366.361-.55.54a24.18 24.18 0 0 0-1.188 1.207c-.617.692-1.412.981-2.487.93-1.36-.073-2.763-.482-4.414-1.287a24.669 24.669 0 0 1-8.157-6.383c-1.824-2.175-3.123-4.339-3.972-6.613-.522-1.397-.721-2.491-.645-3.548.053-.701.315-1.268.802-1.732a63.09 63.09 0 0 0 1.162-1.153c.24-.243.482-.488.724-.727.315-.31.646-.464.979-.464.332 0 .665.155.982.463.342.338.678.675 1.013 1.012l.51.51c.492.486.984.978 1.47 1.471.668.673.67 1.353.006 2.02-.612.62-1.226 1.24-1.851 1.846-.312.3-.383.648-.215 1.069.382.918.941 1.817 1.762 2.829 1.523 1.872 3.102 3.31 4.832 4.397.248.154.51.283.772.41.163.08.325.16.484.246.289.158.72.254 1.146-.189.613-.632 1.24-1.252 1.867-1.872.62-.617 1.331-.616 1.952-.001l3.028 3.021c.635.641.631 1.35-.012 1.998Z" fill="#ABB2BA" stroke="#ABB2BA"/></svg>