<svg width="27" height="20" fill="none" xmlns="http://www.w3.org/2000/svg"><path d="M21.833 1H5.167C2.868 1 1 2.835 1 5.09v9.82C1 17.164 2.868 19 5.167 19h16.666C24.132 19 26 17.165 26 14.91V5.09C26 2.836 24.132 1 21.833 1zm2.5 13.91c0 .377-.094.731-.25 1.05l-6.337-6.22 6.315-5.683c.006-.007.01-.017.017-.022.157.321.255.676.255 1.056v9.818zm-2.5-12.274c.385 0 .746.093 1.07.246l-7.51 6.759c-1.027.925-2.762.925-3.789 0l-7.51-6.76c.33-.152.684-.245 1.068-.245h16.671zM2.667 5.091c0-.38.096-.735.254-1.056l.017.022L9.253 9.74l-6.336 6.22a2.379 2.379 0 01-.251-1.052V5.091zm2.5 12.273c-.386 0-.746-.093-1.071-.247l6.386-6.27c.832.748 1.926 1.123 3.018 1.123 1.092 0 2.186-.375 3.017-1.123l6.387 6.27a2.505 2.505 0 01-1.07.247H5.166z" fill="#ABB2BA" stroke="#ABB2BA" stroke-width=".3"/></svg>