<svg width="31" height="18" fill="none" xmlns="http://www.w3.org/2000/svg"><path fill-rule="evenodd" clip-rule="evenodd" d="M26.68 11.444c1.026 1.03 2.113 1.999 3.035 3.135.409.502.794 1.022 1.087 1.606.418.833.04 1.747-.686 1.797L25.6 17.98c-1.166.099-2.095-.384-2.877-1.202-.624-.652-1.204-1.348-1.805-2.022-.246-.277-.505-.537-.813-.742-.616-.411-1.15-.285-1.503.374-.36.672-.442 1.416-.476 2.163-.05 1.092-.37 1.378-1.438 1.43-2.283.109-4.449-.247-6.462-1.427-1.775-1.042-3.15-2.512-4.347-4.176C3.547 9.135 1.76 5.574.157 1.911-.205 1.086.06.645.947.627a122.88 122.88 0 0 1 4.42-.001c.6.01.997.362 1.227.942.797 2.01 1.773 3.924 2.996 5.697.326.473.659.944 1.133 1.277.523.369.922.247 1.168-.352.158-.38.226-.788.26-1.196.118-1.398.132-2.795-.071-4.187-.127-.872-.604-1.434-1.45-1.599-.432-.084-.368-.247-.159-.5C10.835.27 11.176 0 11.857 0h5.103c.804.162.984.532 1.093 1.363l.005 5.817c-.01.321.157 1.275.72 1.485.45.153.748-.218 1.018-.511 1.223-1.332 2.095-2.904 2.875-4.532.345-.717.642-1.46.93-2.204.215-.55.55-.82 1.154-.811l4.912.006c.145 0 .292.001.436.026.828.146 1.054.511.798 1.34-.403 1.302-1.186 2.386-1.952 3.474-.82 1.164-1.696 2.287-2.508 3.456-.747 1.07-.688 1.607.24 2.535Z" fill="#fff"/></svg>