<svg width="15" height="15" fill="none" xmlns="http://www.w3.org/2000/svg"><path d="M13.018 7.255v3.415c0 .228.007.455-.023.681l.019-.13c-.032.219-.089.43-.174.635l.049-.118a2.607 2.607 0 01-.224.416l-.068.097c-.05.07.032-.031.032-.04 0 .009-.037.045-.041.05a2.668 2.668 0 01-.333.332c-.013.012-.028.023-.04.035-.045.036.1-.076.038-.032-.034.025-.068.051-.104.074a2.49 2.49 0 01-.416.225l.117-.05a2.572 2.572 0 01-.635.174l.131-.018c-.342.044-.7.023-1.043.023H3.888c-.298 0-.596.002-.893 0-.115 0-.228-.008-.34-.023l.13.018a2.591 2.591 0 01-.635-.174l.118.05a2.613 2.613 0 01-.416-.225c-.033-.021-.064-.044-.097-.067-.07-.05.031.031.04.031-.009 0-.045-.036-.05-.04a2.666 2.666 0 01-.332-.333l-.035-.041c-.036-.044.076.101.031.039-.024-.034-.05-.069-.073-.105a2.484 2.484 0 01-.225-.416l.05.118a2.575 2.575 0 01-.174-.636l.018.132c-.044-.343-.023-.7-.023-1.044V3.893c0-.299-.002-.597 0-.893 0-.115.008-.228.023-.341l-.018.131c.031-.22.088-.43.173-.636-.016.04-.032.08-.049.118a2.69 2.69 0 01.225-.416c.021-.032.044-.064.067-.096.05-.07-.031.03-.031.039 0-.008.036-.044.04-.05a2.663 2.663 0 01.333-.332l.041-.034c.044-.036-.101.075-.04.031l.106-.074c.13-.088.27-.162.416-.224l-.118.049c.203-.085.416-.142.635-.174l-.13.018c.198-.026.397-.022.597-.022H6.75c.257 0 .502-.227.491-.492A.5.5 0 006.75.004H3.01c-.477 0-.939.113-1.365.322C.643.82.004 1.891.001 3c-.002.229 0 .458 0 .69v7.322a3.02 3.02 0 00.398 1.494 3.027 3.027 0 002.6 1.502c.253.002.507 0 .761 0h7.076c.073 0 .146.002.218 0a2.975 2.975 0 001.584-.483 3.045 3.045 0 001.367-2.534V7.257c0-.257-.227-.503-.492-.491a.498.498 0 00-.495.49zM9.875.983h3.636c.257 0 .503-.226.492-.491A.5.5 0 0013.51 0H9.875c-.258 0-.503.226-.492.492a.5.5 0 00.492.491z" fill="#023869"/><path d="M13.998 4.128V.492c0-.257-.226-.503-.491-.492a.5.5 0 00-.491.492v3.636c0 .257.226.503.491.492a.5.5 0 00.492-.492z" fill="#023869"/><path d="M7.36 7.337l.65-.65 1.55-1.55 1.873-1.873 1.625-1.625c.262-.263.53-.521.788-.788l.011-.012c.182-.182.195-.516 0-.694a.499.499 0 00-.694 0l-.65.65-1.55 1.55-1.874 1.873-1.625 1.625c-.262.263-.53.521-.788.788l-.011.012c-.182.182-.195.516 0 .694.196.18.501.195.694 0z" fill="#023869"/></svg>