<svg width="24" height="24" fill="none" xmlns="http://www.w3.org/2000/svg"><path d="M19.333 3H4.667C2.644 3 1 4.733 1 6.864v9.272C1 18.266 2.644 20 4.667 20h14.666C21.356 20 23 18.267 23 16.136V6.864C23 4.734 21.356 3 19.333 3zm2.2 13.136c0 .357-.082.692-.22.993l-5.577-5.874 5.558-5.368c.005-.006.01-.016.015-.021.138.304.224.64.224.998v9.272zm-2.2-11.59c.338 0 .657.087.941.231l-6.609 6.384c-.903.874-2.43.874-3.333 0l-6.61-6.384c.29-.144.603-.232.941-.232h14.67zM2.467 6.863c0-.359.084-.694.223-.998.006.008.011.016.016.02l5.557 5.369-5.576 5.874a2.38 2.38 0 01-.221-.993V6.864zm2.2 11.59a2.07 2.07 0 01-.943-.232l5.62-5.922A3.815 3.815 0 0012 13.36c.96 0 1.924-.353 2.655-1.06l5.62 5.922a2.082 2.082 0 01-.942.232H4.667z" fill="#023869"/></svg>