<svg width="18" height="13" fill="none" xmlns="http://www.w3.org/2000/svg"><path d="M14.333 1.08H3.667C2.196 1.08 1 2.254 1 3.698v6.284C1 11.425 2.196 12.6 3.667 12.6h10.666C15.804 12.6 17 11.425 17 9.982V3.698c0-1.444-1.196-2.618-2.667-2.618Zm1.6 8.902c0 .242-.06.468-.16.673l-4.056-3.981 4.042-3.638.011-.014c.1.206.163.433.163.676v6.284Zm-1.6-7.855c.246 0 .478.06.685.157L10.21 6.61c-.657.592-1.767.592-2.424 0L2.98 2.284c.21-.098.438-.157.684-.157h10.67ZM2.067 3.698c0-.243.061-.47.162-.676.005.005.008.011.012.014l4.041 3.638-4.055 3.98c-.1-.204-.16-.43-.16-.672V3.698Zm1.6 7.855c-.247 0-.478-.06-.686-.158L7.07 7.382C7.6 7.86 8.3 8.1 9 8.1c.699 0 1.399-.24 1.931-.72l4.088 4.014c-.21.098-.44.158-.686.158H3.667Z" fill="#ABB2BA" stroke="#ABB2BA" stroke-width=".3"/></svg>