<svg width="20" height="20" fill="none" xmlns="http://www.w3.org/2000/svg"><path d="M16.11 2.5H3.888C2.202 2.5.832 3.944.832 5.72v7.727c0 1.775 1.37 3.22 3.056 3.22H16.11c1.685 0 3.055-1.445 3.055-3.22V5.72c0-1.776-1.37-3.22-3.055-3.22zm1.833 10.947c0 .298-.069.576-.184.827L13.112 9.38l4.631-4.473c.005-.005.008-.014.013-.018.115.253.187.533.187.832v7.727zm-1.833-9.66c.282 0 .547.074.784.194l-5.507 5.32c-.753.728-2.026.728-2.779 0L3.1 3.98c.242-.12.503-.193.785-.193H16.11zM2.054 5.72c0-.3.07-.579.187-.832l.012.018 4.631 4.473-4.646 4.895a1.984 1.984 0 01-.184-.827V5.72zm1.834 9.659a1.73 1.73 0 01-.786-.194l4.684-4.935a3.18 3.18 0 002.213.884c.8 0 1.603-.295 2.212-.884l4.684 4.935c-.24.121-.503.194-.785.194H3.888z" fill="#023869" stroke="#023869" stroke-width=".3"/></svg>