<svg width="19" height="19" fill="none" xmlns="http://www.w3.org/2000/svg"><path d="M15.302 11.282l-.001-.001c-.724-.719-1.698-.719-2.423 0-.432.427-.864.855-1.31 1.31a8.56 8.56 0 00-.322-.162 5.22 5.22 0 01-.48-.255C9.61 11.45 8.55 10.483 7.524 9.22c-.52-.64-.876-1.204-1.126-1.793.437-.424.866-.857 1.293-1.289.754-.76.752-1.707-.004-2.47-.346-.35-.698-.702-1.047-1.047l-.358-.358c-.239-.24-.478-.481-.723-.723-.74-.72-1.691-.72-2.425.002-.174.172-.347.347-.52.52a38.19 38.19 0 01-.808.803 2.548 2.548 0 00-.794 1.707c-.062.86.093 1.732.502 2.825.63 1.691 1.592 3.294 2.939 4.901a18.2 18.2 0 006.02 4.71c1.262.615 2.345.929 3.411.986.075.004.148.006.22.006.887 0 1.586-.3 2.131-.91.255-.284.53-.55.806-.817l.4-.392c.741-.75.745-1.713.007-2.457l-2.147-2.142zm1.615 4.078c-.129.13-.26.256-.39.383-.288.278-.575.557-.841.855-.437.49-1 .695-1.761.659-.964-.052-1.958-.342-3.127-.913a17.472 17.472 0 01-5.778-4.52C3.728 10.283 2.808 8.75 2.207 7.139c-.37-.99-.511-1.764-.457-2.513A1.81 1.81 0 012.318 3.4c.277-.266.55-.541.822-.817.17-.172.342-.345.513-.515.224-.219.458-.328.694-.328.235 0 .471.11.695.328.243.24.48.478.718.716l.36.362c.35.344.698.693 1.043 1.042.472.477.474.958.004 1.431-.434.44-.868.878-1.312 1.307-.22.213-.27.46-.151.757.27.65.666 1.287 1.247 2.004 1.079 1.326 2.198 2.345 3.423 3.115.176.109.36.2.547.29.115.057.23.113.343.175.204.112.51.18.812-.134.434-.448.878-.887 1.322-1.326.44-.438.943-.437 1.383-.001l2.144 2.14c.45.454.447.956-.008 1.415z" fill="#023869" stroke="#023869"/></svg>