<svg width="29" height="29" fill="none" xmlns="http://www.w3.org/2000/svg"><path d="M25.526 13.94a1.042 1.042 0 0 0-1.097-.995 1.06 1.06 0 0 0-1.006 1.1 8.398 8.398 0 0 1-1.568 5.262 8.475 8.475 0 0 1-4.49 3.19 8.428 8.428 0 0 1-5.492-.245 8.33 8.33 0 0 1-4.145-3.578 8.33 8.33 0 0 1-1.025-5.378 8.429 8.429 0 0 1 2.533-4.879 8.476 8.476 0 0 1 5.008-2.293 8.398 8.398 0 0 1 5.34 1.273 1.049 1.049 0 0 0 .794.14 1.06 1.06 0 0 0 .814-.842 1.047 1.047 0 0 0-.465-1.068 10.498 10.498 0 0 0-6.676-1.59 10.594 10.594 0 0 0-6.26 2.867 10.536 10.536 0 0 0-3.165 6.099 10.412 10.412 0 0 0 1.282 6.722 10.413 10.413 0 0 0 5.18 4.471c2.185.867 4.603.975 6.865.308a10.595 10.595 0 0 0 5.613-3.987 10.498 10.498 0 0 0 1.96-6.576Z" fill="#fff"/></svg>