<svg width="28" height="23" fill="none" xmlns="http://www.w3.org/2000/svg"><path fill-rule="evenodd" clip-rule="evenodd" d="M13.249 14.248V1.768c0-.424.353-.768.76-.768.42 0 .761.343.761.768v12.46l2.989-2.979a.767.767 0 011.075.005c.29.288.3.777.005 1.072l-4.242 4.229a.764.764 0 01-.597.282.764.764 0 01-.597-.282l-4.242-4.23a.764.764 0 01.005-1.071.767.767 0 011.075-.005l3.008 2.999zm12.307 6.912v-6.493a.722.722 0 011.444 0v7.226c0 .39-.335.707-.722.707 0 0 0 0 0 0s0 0 0 0H1.723a.72.72 0 01-.507-.21.689.689 0 01-.216-.497v-7.226a.722.722 0 011.444 0v6.493h23.112z" fill="#6E91B1" stroke="#6E91B1" stroke-width=".7"/></svg>