<svg width="73" height="29" fill="none" xmlns="http://www.w3.org/2000/svg"><path fill-rule="evenodd" clip-rule="evenodd" d="M37.88 8.983v1.865c0 1.135-.276 2.004-.825 2.606-.55.602-1.362.903-2.435.903s-1.885-.304-2.435-.912c-.55-.608-.825-1.48-.825-2.617V3.53c0-1.136.275-2.008.825-2.617C32.735.304 33.547 0 34.62 0s1.885.304 2.435.912c.55.609.825 1.48.825 2.617v1.364h-2.068V3.389c0-.508-.102-.866-.308-1.073-.205-.207-.48-.31-.824-.31-.345 0-.62.103-.825.31-.206.208-.308.567-.308 1.076v7.594c0 .509.102.864.308 1.065.205.2.48.301.825.301.344 0 .619-.1.824-.3.206-.201.309-.555.309-1.063V8.983h2.067zm6.101 1.143L45.471.16h3.042v14.037h-2.067V4.13l-1.51 10.066h-2.068l-1.63-9.926v9.926H39.33V.16h3.041l1.61 9.966zm8.526-.381h2.107l-1.053-7.098-1.054 7.098zm4.99 4.452H55.29l-.378-2.547H52.23l-.378 2.547h-2.007L52.07.16h3.2l2.226 14.037zm3.517-12.032v4.753h1.034c.344 0 .61-.093.795-.28.185-.188.278-.535.278-1.044V3.49c0-.508-.093-.855-.278-1.043-.186-.187-.45-.28-.795-.28h-1.034zM62.048.16c1.1 0 1.918.295 2.455.883.536.588.805 1.45.805 2.586v1.825c0 1.137-.269 1.999-.805 2.587-.537.588-1.355.882-2.455.882h-1.034v5.274h-2.186V.16h3.22zm4.194 0H73v2.006h-2.286v12.03h-2.186V2.167h-2.286V.16zM35.309 18.7c0-.444-.094-.758-.28-.94-.188-.181-.439-.272-.753-.272s-.564.091-.751.273c-.188.181-.28.495-.28.94v1.318H31.36v-1.195c0-.996.25-1.76.752-2.294.501-.533 1.24-.8 2.219-.8.978 0 1.717.267 2.219.8.5.534.751 1.298.751 2.294v6.398c0 .996-.25 1.76-.751 2.294-.502.533-1.241.799-2.22.799-.977 0-1.717-.264-2.218-.792-.501-.528-.752-1.289-.752-2.284v-1.634h1.884v1.757c0 .446.093.756.281.932.187.176.438.264.752.264.313 0 .564-.089.751-.265.187-.177.28-.489.28-.936v-2.543H33.66v-1.758h1.649v-2.355zm5.361 9.475h-1.992V15.87h1.992v5.273h2.264V15.87h2.029v12.304h-2.029v-5.273H40.67v5.273zm8.24-7.119h2.735v1.758H48.91v3.603h3.442v1.758h-5.434V15.87h5.434v1.758H48.91v3.427zm6.847-3.427v4.165h.942c.314 0 .555-.082.725-.246.168-.164.253-.468.253-.914V18.79c0-.446-.085-.75-.253-.914-.17-.164-.411-.246-.725-.246h-.942zm.942-1.758c1.002 0 1.748.258 2.237.773.489.516.733 1.272.733 2.268v1.6c0 .995-.244 1.751-.733 2.267-.49.515-1.235.773-2.237.773h-.942v4.623h-1.992V15.87h2.934zm6.068 12.304h-1.993V15.87h5.271v1.758h-3.278v10.546zm6.175-2.83c0 .445.094.759.281.94.187.182.438.273.752.273s.564-.091.752-.273c.187-.181.28-.495.28-.94V18.7c0-.445-.093-.759-.28-.94-.188-.182-.438-.273-.752-.273s-.565.091-.752.273c-.187.181-.28.495-.28.94v6.644zm-1.992-6.521c0-.996.26-1.76.779-2.294.52-.533 1.268-.8 2.246-.8s1.727.267 2.246.8c.519.534.779 1.298.779 2.294v6.398c0 .996-.26 1.76-.779 2.294-.52.533-1.268.799-2.246.799s-1.727-.266-2.246-.8c-.52-.533-.779-1.297-.779-2.293v-6.398z" fill="#3E4B6B"/><path fill-rule="evenodd" clip-rule="evenodd" d="M23.492 28.217a3.56 3.56 0 01-2.583-1.113 3.845 3.845 0 01-1.07-2.686c0-1.014.38-1.968 1.068-2.684a3.554 3.554 0 015.165-.002c1.425 1.482 1.425 3.892 0 5.374a3.554 3.554 0 01-2.58 1.11zM3.654 7.787A3.56 3.56 0 011.07 6.673 3.85 3.85 0 010 3.987a3.85 3.85 0 011.068-2.683A3.562 3.562 0 013.653.189c.975 0 1.892.395 2.58 1.112a3.852 3.852 0 011.071 2.687c0 1.015-.38 1.969-1.07 2.687a3.556 3.556 0 01-2.58 1.112z" fill="#EDC128"/><path fill-rule="evenodd" clip-rule="evenodd" d="M23.33 7.787a3.56 3.56 0 01-2.584-1.113c-1.423-1.481-1.425-3.89-.002-5.37A3.561 3.561 0 0123.328.188a3.56 3.56 0 012.582 1.113c1.423 1.48 1.423 3.892 0 5.375a3.561 3.561 0 01-2.58 1.11z" fill="#4C98C0"/><path fill-rule="evenodd" clip-rule="evenodd" d="M3.748 28.217a3.565 3.565 0 01-2.584-1.113 3.846 3.846 0 01-1.068-2.686 3.85 3.85 0 011.07-2.685 3.34 3.34 0 01.515-.435c.062-.046.12-.081.179-.12.135-.08.27-.153.396-.213.068-.032.138-.065.212-.095.132-.05.278-.096.445-.137l.093-.026.056-.017.813-.057c.103.004.214.018.331.034l.047.006c.027.004.065.007.102.01l.033.002.037.007h.032c.06.002.12.004.178.004 1.401 0 2.785-.621 3.796-1.703a5.647 5.647 0 001.52-3.975v-.043l-.008-.045c-.008-.04-.01-.082-.012-.123a3.164 3.164 0 00-.014-.145l-.009-.086c-.008-.073-.016-.144-.02-.217l.062-.848c.004-.022.012-.041.017-.062l.015-.052c.037-.16.077-.322.136-.478a4.273 4.273 0 01.301-.643c.035-.06.068-.12.108-.179a3.558 3.558 0 015.588-.54c1.422 1.48 1.421 3.89-.003 5.372a3.524 3.524 0 01-.691.55 4.078 4.078 0 01-.396.217 2.99 2.99 0 01-.211.095c-.14.053-.288.1-.444.136l-.087.025-.06.018-.82.06a3.523 3.523 0 01-.304-.031l-.073-.01a1.073 1.073 0 00-.101-.01l-.029-.002-.042-.008h-.033a4.621 4.621 0 00-.178-.003c-1.401 0-2.784.62-3.794 1.701a5.65 5.65 0 00-1.522 3.978l.001.043.008.043c.007.041.009.082.012.123l.013.145c.002.03.008.081.014.133.006.058.013.115.013.173v.02l-.058.813-.038.14c-.04.176-.084.331-.134.47a5.076 5.076 0 01-.298.638 3.744 3.744 0 01-.531.718 3.554 3.554 0 01-2.58 1.113z" fill="#EDC128"/><path fill-rule="evenodd" clip-rule="evenodd" d="M13.61 28.217a3.561 3.561 0 01-2.584-1.114 3.853 3.853 0 01-1.07-2.685c0-1.014.38-1.968 1.068-2.683a3.627 3.627 0 01.693-.552c.134-.083.263-.154.397-.218.071-.033.14-.067.211-.095a3.29 3.29 0 01.44-.133l.145-.043.826-.063c.098.005.203.02.313.034l.06.009c.041.004.075.008.11.008.013.001.027.001.04.003l.025.003.035.004.182.003c1.399 0 2.78-.62 3.788-1.7a5.65 5.65 0 001.522-3.978l-.005-.176-.015-.02-.002-.02a2.809 2.809 0 00-.008-.124l-.014-.122c-.007-.067-.016-.133-.018-.2l.057-.822c.004-.02.032-.122.04-.152.046-.197.086-.34.133-.468.026-.077.058-.147.09-.22.058-.133.126-.268.21-.416l.016-.027c.028-.05.055-.1.089-.148a3.562 3.562 0 013.007-1.657 3.56 3.56 0 012.581 1.112c1.423 1.481 1.423 3.893 0 5.375a3.73 3.73 0 01-.517.435c-.041.03-.08.054-.12.08l-.064.04a4.101 4.101 0 01-.385.21c-.073.034-.142.067-.214.095a3.79 3.79 0 01-.447.137c-.035.008-.064.018-.093.027-.02.005-.038.012-.057.016l-.812.058c-.119-.005-.247-.023-.372-.04-.042-.005-.075-.007-.107-.009-.013 0-.025 0-.038-.002l-.069-.008a4.363 4.363 0 00-.18-.003c-1.4 0-2.78.62-3.79 1.7a5.648 5.648 0 00-1.52 3.978l.001.043.009.041c.007.043.009.087.012.13l.01.132.013.126c.007.064.015.129.017.193l-.06.834-.036.13c-.04.177-.083.332-.134.477a3.8 3.8 0 01-.083.204l-.01.023a4.266 4.266 0 01-.317.59 3.548 3.548 0 01-2.998 1.648zM3.75 17.96a3.56 3.56 0 01-2.583-1.111 3.858 3.858 0 01-1.07-2.688c0-1.013.378-1.966 1.068-2.683a3.666 3.666 0 01.697-.555 4.27 4.27 0 01.608-.31c.135-.051.283-.096.437-.133L3 10.453l.05-.015.827-.062c.107.005.223.02.345.038l.026.004a1.7 1.7 0 00.108.008c.012 0 .024 0 .036.002l.035.006.034.002c.06.002.121.003.182.003 1.398 0 2.779-.62 3.788-1.701a5.65 5.65 0 001.52-3.978l-.001-.042-.008-.04c-.009-.047-.01-.093-.013-.14a2.727 2.727 0 00-.008-.117l-.013-.117c-.008-.07-.017-.14-.018-.21l.054-.799.006-.018v-.016l.034-.124c.047-.204.088-.352.134-.482.026-.072.059-.144.091-.218.06-.136.13-.275.21-.415L10.43 2c.032-.055.063-.11.099-.164A3.562 3.562 0 0113.53.189c.976 0 1.893.395 2.583 1.113 1.423 1.48 1.422 3.892-.002 5.372a3.47 3.47 0 01-.514.434c-.056.041-.104.07-.154.101l-.027.017a4.114 4.114 0 01-.603.31 3.46 3.46 0 01-.447.136l-.096.027-.057.017-.81.059a4.238 4.238 0 01-.327-.035l-.05-.006c-.037-.005-.072-.007-.105-.01-.014 0-.027 0-.04-.002l-.028-.004-.035-.003a4.474 4.474 0 00-.181-.003c-1.399 0-2.78.62-3.79 1.7a5.654 5.654 0 00-1.52 3.978v.043l.008.042c.008.042.01.086.013.13a3.357 3.357 0 00.024.258c.007.063.015.125.016.188l-.058.828-.018.066-.02.074c-.04.185-.084.34-.133.476-.025.072-.06.146-.092.222-.06.137-.128.272-.207.41-.038.065-.073.127-.111.185a3.556 3.556 0 01-3 1.648z" fill="#4C98C0"/></svg>