<svg width="272" height="281" fill="none" xmlns="http://www.w3.org/2000/svg"><g filter="url(#filter0_b)"><circle cx="40" cy="40" r="36.5" stroke="#fff" stroke-width="3"/><circle cx="232" cy="40" r="36.5" stroke="#fff" stroke-width="3"/><circle cx="232" cy="241" r="36.5" stroke="#fff" stroke-width="3"/><path d="M231.497 178.997l.019-1.5-3.875-.05 2.831 2.646 1.025-1.096zm.003.003l.067 1.498 3.563-.159-2.606-2.435L231.5 179zM175 236.5l-1.022 1.098 2.8 2.606-.282-3.815-1.496.111zm-.297-.277l1.022-1.098-3.025-2.814.514 4.099 1.489-.187zm-35.644-33.168l-.08 1.498 4.128.22-3.026-2.816-1.022 1.098zM139 203l.027-1.5-3.917-.071 2.868 2.669L139 203zm55-59l1.023-1.097-2.577-2.405.054 3.525L194 144zm.126.118l-1.023 1.096 2.832 2.644-.314-3.862-1.495.122zM232 180.5c21.815 0 39.5-17.685 39.5-39.5h-3c0 20.158-16.342 36.5-36.5 36.5v3zm-.523-.003c.174.002.348.003.523.003v-3c-.162 0-.323-.001-.484-.003l-.039 3zm1.047-2.593l-.003-.003-2.049 2.192.004.003 2.048-2.192zm-45.888 18.075c5.904-6.848 16.964-10.77 26.874-12.952a122.45 122.45 0 0116.636-2.438 71.565 71.565 0 011.335-.086l.067-.004h.019v-.001L231.5 179l-.068-1.498h-.008l-.02.001-.078.004a78.895 78.895 0 00-1.4.09 125.112 125.112 0 00-17.061 2.501c-9.965 2.193-21.905 6.271-28.501 13.923l2.272 1.958zM175 236.5l1.496-.11v-.003l-.001-.012-.004-.052-.013-.216a50.94 50.94 0 01-.041-.855 76.961 76.961 0 01-.054-3.193c.007-2.713.146-6.479.668-10.687 1.052-8.473 3.63-18.484 9.585-25.393l-2.272-1.958c-6.545 7.591-9.217 18.33-10.29 26.982a93.095 93.095 0 00-.691 11.047 79.122 79.122 0 00.057 3.321 48.159 48.159 0 00.058 1.15l.004.064.002.018v.007l1.496-.11zm-1.319.821l.297.277 2.044-2.196-.297-.277-2.044 2.196zM176.5 241c0-1.68-.105-3.337-.309-4.963l-2.977.373c.189 1.503.286 3.035.286 4.59h3zM137 280.5c21.815 0 39.5-17.685 39.5-39.5h-3c0 20.158-16.342 36.5-36.5 36.5v3zM97.5 241c0 21.815 17.685 39.5 39.5 39.5v-3c-20.158 0-36.5-16.342-36.5-36.5h-3zm39.5-39.5c-21.815 0-39.5 17.685-39.5 39.5h3c0-20.158 16.342-36.5 36.5-36.5v-3zm2.139.057A39.932 39.932 0 00137 201.5v3c.664 0 1.324.018 1.979.053l.16-2.996zm-1.161 2.541l.059.055 2.044-2.196-.059-.055-2.044 2.196zm41.481-15.178c-6.676 6.437-16.69 9.62-25.226 11.167a91.597 91.597 0 01-10.805 1.283c-1.375.08-2.483.113-3.243.125-.381.007-.674.008-.87.007l-.22-.001-.054-.001h-.014L139 203l-.026 1.5h.025l.065.001.246.001c.213.001.524-.001.923-.007a80.89 80.89 0 003.37-.13 94.421 94.421 0 0011.164-1.327c8.714-1.578 19.45-4.895 26.774-11.958l-2.082-2.16zM194 144l-1.5.023v.018l.001.065.001.264c0 .234-.001.581-.008 1.03a114.274 114.274 0 01-1.474 16.292c-1.618 9.77-4.935 20.839-11.561 27.228l2.082 2.16c7.374-7.111 10.807-19.042 12.439-28.897a117.473 117.473 0 001.514-16.738c.007-.466.008-.829.008-1.078l-.001-.286-.001-.075v-.028L194 144zm1.15-.979l-.127-.118-2.046 2.194.126.117 2.047-2.193zM192.5 141c0 1.09.044 2.171.131 3.239l2.99-.243A37.113 37.113 0 01195.5 141h-3zm39.5-39.5c-21.815 0-39.5 17.685-39.5 39.5h3c0-20.158 16.342-36.5 36.5-36.5v-3zm39.5 39.5c0-21.815-17.685-39.5-39.5-39.5v3c20.158 0 36.5 16.342 36.5 36.5h3zm-137.003 35.997l.019-1.5-3.875-.05 2.831 2.646 1.025-1.096zm.003.003l.067 1.498 3.563-.159-2.606-2.435L134.5 177zM78 234.5l-1.022 1.098 2.8 2.606-.282-3.815L78 234.5zm-.297-.277l1.022-1.098-3.025-2.814.514 4.099 1.489-.187zm-35.644-33.168l-.08 1.498 4.128.22-3.026-2.816-1.022 1.098zM42 201l.027-1.5-3.917-.071 2.868 2.669L42 201zm55-59l1.023-1.097-2.577-2.405.054 3.525L97 142zm.126.118l-1.023 1.096 2.832 2.644-.314-3.862-1.495.122zM135 178.5c21.815 0 39.5-17.685 39.5-39.5h-3c0 20.158-16.342 36.5-36.5 36.5v3zm-.523-.003c.174.002.348.003.523.003v-3c-.162 0-.323-.001-.484-.003l-.039 3zm1.047-2.593l-.003-.003-2.049 2.192.004.003 2.048-2.192zm-45.888 18.075c5.904-6.848 16.964-10.77 26.874-12.952a122.45 122.45 0 0116.636-2.438 71.565 71.565 0 011.335-.086l.067-.004h.019v-.001L134.5 177l-.068-1.498h-.008l-.02.001-.078.004a78.895 78.895 0 00-1.4.09 125.112 125.112 0 00-17.061 2.501c-9.965 2.193-21.905 6.271-28.501 13.923l2.272 1.958zM78 234.5l1.496-.11v-.003l-.001-.012-.004-.052a48.28 48.28 0 01-.054-1.071 76.265 76.265 0 01-.054-3.193c.008-2.713.146-6.479.668-10.687 1.052-8.473 3.63-18.484 9.585-25.393l-2.272-1.958c-6.544 7.591-9.217 18.33-10.29 26.982a93.012 93.012 0 00-.691 11.047 79.186 79.186 0 00.057 3.321 51.86 51.86 0 00.064 1.232v.007L78 234.5zm-1.32.821l.298.277 2.044-2.196-.297-.277-2.044 2.196zM79.5 239c0-1.68-.105-3.337-.309-4.963l-2.977.373c.189 1.503.286 3.035.286 4.59h3zM40 278.5c21.815 0 39.5-17.685 39.5-39.5h-3c0 20.158-16.342 36.5-36.5 36.5v3zM.5 239c0 21.815 17.685 39.5 39.5 39.5v-3c-20.158 0-36.5-16.342-36.5-36.5h-3zM40 199.5C18.185 199.5.5 217.185.5 239h3c0-20.158 16.342-36.5 36.5-36.5v-3zm2.139.057A39.923 39.923 0 0040 199.5v3c.664 0 1.324.018 1.979.053l.16-2.996zm-1.16 2.541l.058.055 2.044-2.196-.06-.055-2.043 2.196zm41.48-15.178c-6.676 6.437-16.69 9.62-25.226 11.167a91.576 91.576 0 01-10.805 1.283c-1.375.08-2.483.113-3.243.125-.38.007-.674.008-.87.007l-.22-.001-.054-.001h-.014L42 201l-.026 1.5h.025l.065.001.246.001c.213.001.524-.001.923-.007a81 81 0 003.37-.13 94.446 94.446 0 0011.164-1.327c8.714-1.578 19.45-4.895 26.774-11.958l-2.082-2.16zM97 142l-1.5.023v.018l.001.065.001.264c0 .234-.001.581-.008 1.03-.013.899-.048 2.202-.132 3.81-.17 3.218-.54 7.645-1.342 12.482-1.618 9.77-4.935 20.839-11.561 27.228l2.082 2.16c7.374-7.111 10.807-19.042 12.439-28.897a117.516 117.516 0 001.377-12.815c.087-1.65.123-2.991.137-3.923a69.47 69.47 0 00.007-1.364v-.075l-.001-.021v-.007L97 142zm1.15-.979l-.127-.118-2.046 2.194.126.117 2.047-2.193zM95.5 139c0 1.09.044 2.171.131 3.239l2.99-.243A37.021 37.021 0 0198.5 139h-3zM135 99.5c-21.815 0-39.5 17.685-39.5 39.5h3c0-20.158 16.342-36.5 36.5-36.5v-3zm39.5 39.5c0-21.815-17.685-39.5-39.5-39.5v3c20.158 0 36.5 16.342 36.5 36.5h3zm-40.003-61.003l.019-1.5-3.875-.05 2.831 2.646 1.025-1.096zm.003.003l.067 1.499 3.563-.16-2.606-2.435L134.5 78zM78 135.5l-1.022 1.098 2.8 2.606-.282-3.815L78 135.5zm-.297-.277l1.022-1.098-3.025-2.814.514 4.099 1.489-.187zm-35.644-33.168l-.08 1.498 4.128.22-3.026-2.816-1.022 1.098zM42 102l.027-1.5-3.917-.071 2.868 2.669L42 102zm55-59l1.023-1.097-2.577-2.405.054 3.525L97 43zm.126.118l-1.023 1.096 2.832 2.644-.314-3.862-1.495.122zM135 79.5c21.815 0 39.5-17.685 39.5-39.5h-3c0 20.158-16.342 36.5-36.5 36.5v3zm-.523-.003c.174.002.348.003.523.003v-3c-.162 0-.323-.001-.484-.003l-.039 3zm1.047-2.593l-.003-.003-2.049 2.192.004.003 2.048-2.192zM89.636 94.98c5.904-6.848 16.964-10.77 26.874-12.952a122.415 122.415 0 0116.636-2.438 71.275 71.275 0 011.402-.09h.019L134.5 78l-.068-1.499h-.008l-.02.002-.078.004a53.188 53.188 0 00-1.4.09 125.422 125.422 0 00-17.061 2.5C105.9 81.292 93.96 85.37 87.364 93.022l2.272 1.958zM78 135.5l1.496-.11v-.003l-.001-.012-.004-.052a48.28 48.28 0 01-.054-1.071 76.265 76.265 0 01-.054-3.193c.008-2.713.146-6.479.668-10.687 1.052-8.473 3.63-18.484 9.585-25.393l-2.272-1.958c-6.544 7.591-9.217 18.33-10.29 26.982a93.012 93.012 0 00-.691 11.047 79.186 79.186 0 00.057 3.321 51.86 51.86 0 00.064 1.232v.007L78 135.5zm-1.32.821l.298.277 2.044-2.196-.297-.277-2.044 2.196zM79.5 140c0-1.68-.105-3.337-.309-4.963l-2.977.373c.189 1.503.286 3.035.286 4.59h3zM40 179.5c21.815 0 39.5-17.685 39.5-39.5h-3c0 20.158-16.342 36.5-36.5 36.5v3zM.5 140c0 21.815 17.685 39.5 39.5 39.5v-3c-20.158 0-36.5-16.342-36.5-36.5h-3zM40 100.5C18.185 100.5.5 118.185.5 140h3c0-20.158 16.342-36.5 36.5-36.5v-3zm2.139.057A39.923 39.923 0 0040 100.5v3c.664 0 1.324.018 1.979.053l.16-2.996zm-1.16 2.541l.058.055 2.044-2.196-.06-.055-2.043 2.196zm41.48-15.178c-6.676 6.437-16.69 9.62-25.226 11.166a91.592 91.592 0 01-10.805 1.284c-1.375.08-2.483.113-3.243.125-.38.007-.674.008-.87.007l-.22-.001-.054-.001h-.014L42 102l-.026 1.5h.025l.065.001.246.001c.213.001.524-.001.923-.007a81 81 0 003.37-.13 94.446 94.446 0 0011.164-1.327c8.714-1.578 19.45-4.895 26.774-11.958l-2.082-2.16zM97 43l-1.5.023v.018l.001.065.001.264c0 .234-.001.581-.008 1.03-.013.899-.048 2.202-.132 3.81-.17 3.218-.54 7.645-1.342 12.482-1.618 9.77-4.935 20.839-11.561 27.228l2.082 2.16c7.374-7.111 10.807-19.042 12.439-28.897a117.476 117.476 0 001.377-12.815c.087-1.65.123-2.991.137-3.923a69.543 69.543 0 00.007-1.364v-.075l-.001-.02v-.008L97 43zm1.15-.979l-.127-.118-2.046 2.194.126.117 2.047-2.193zM95.5 40c0 1.09.044 2.17.131 3.24l2.99-.244A37.02 37.02 0 0198.5 40h-3zM135 .5C113.185.5 95.5 18.185 95.5 40h3c0-20.158 16.342-36.5 36.5-36.5v-3zM174.5 40C174.5 18.185 156.815.5 135 .5v3c20.158 0 36.5 16.342 36.5 36.5h3z" fill="#fff"/></g><defs><filter id="filter0_b" x="-7.5" y="-7.5" width="287" height="296" filterUnits="userSpaceOnUse" color-interpolation-filters="sRGB"><feFlood flood-opacity="0" result="BackgroundImageFix"/><feGaussianBlur in="BackgroundImage" stdDeviation="4"/><feComposite in2="SourceAlpha" operator="in" result="effect1_backgroundBlur"/><feBlend in="SourceGraphic" in2="effect1_backgroundBlur" result="shape"/></filter></defs></svg>