<svg width="272" height="281" viewBox="0 0 272 281" fill="none" xmlns="http://www.w3.org/2000/svg">
<g filter="url(#filter0_b)">
<circle cx="40" cy="40" r="36.5" stroke="white" stroke-width="3"/>
<circle cx="232" cy="40" r="36.5" stroke="white" stroke-width="3"/>
<circle cx="232" cy="241" r="36.5" stroke="white" stroke-width="3"/>
<path d="M231.497 178.997L231.516 177.497L227.641 177.447L230.472 180.093L231.497 178.997ZM231.5 179L231.567 180.498L235.13 180.339L232.524 177.904L231.5 179ZM175 236.5L173.978 237.598L176.778 240.204L176.496 236.389L175 236.5ZM174.703 236.223L175.725 235.125L172.7 232.311L173.214 236.41L174.703 236.223ZM139.059 203.055L138.979 204.553L143.107 204.773L140.081 201.957L139.059 203.055ZM139 203L139.027 201.5L135.11 201.429L137.978 204.098L139 203ZM194 144L195.023 142.903L192.446 140.498L192.5 144.023L194 144ZM194.126 144.118L193.103 145.214L195.935 147.858L195.621 143.996L194.126 144.118ZM232 180.5C253.815 180.5 271.5 162.815 271.5 141H268.5C268.5 161.158 252.158 177.5 232 177.5V180.5ZM231.477 180.497C231.651 180.499 231.825 180.5 232 180.5V177.5C231.838 177.5 231.677 177.499 231.516 177.497L231.477 180.497ZM232.524 177.904L232.521 177.901L230.472 180.093L230.476 180.096L232.524 177.904ZM186.636 195.979C192.54 189.131 203.6 185.209 213.51 183.027C218.413 181.948 222.936 181.315 226.234 180.952C227.882 180.771 229.222 180.657 230.146 180.589C230.609 180.555 230.967 180.532 231.208 180.518C231.329 180.511 231.42 180.506 231.481 180.503C231.511 180.501 231.533 180.5 231.548 180.499C231.555 180.499 231.56 180.499 231.563 180.499C231.565 180.499 231.566 180.499 231.567 180.499C231.567 180.498 231.567 180.498 231.567 180.498C231.567 180.498 231.567 180.498 231.5 179C231.433 177.502 231.432 177.502 231.432 177.502C231.432 177.502 231.431 177.502 231.43 177.502C231.429 177.502 231.427 177.502 231.424 177.502C231.419 177.502 231.413 177.502 231.404 177.503C231.386 177.504 231.36 177.505 231.326 177.507C231.259 177.51 231.161 177.515 231.033 177.523C230.778 177.538 230.404 177.562 229.926 177.597C228.97 177.667 227.594 177.784 225.906 177.97C222.533 178.341 217.899 178.989 212.865 180.098C202.9 182.291 190.96 186.369 184.364 194.021L186.636 195.979ZM175 236.5C176.496 236.389 176.496 236.389 176.496 236.39C176.496 236.39 176.496 236.39 176.496 236.389C176.496 236.389 176.496 236.388 176.496 236.387C176.496 236.385 176.495 236.381 176.495 236.375C176.494 236.364 176.493 236.347 176.491 236.323C176.488 236.276 176.484 236.203 176.478 236.107C176.467 235.914 176.452 235.626 176.437 235.252C176.408 234.505 176.379 233.414 176.383 232.059C176.39 229.346 176.529 225.58 177.051 221.372C178.103 212.899 180.681 202.888 186.636 195.979L184.364 194.021C177.819 201.612 175.147 212.351 174.074 221.003C173.534 225.358 173.391 229.248 173.383 232.05C173.379 233.453 173.409 234.585 173.44 235.371C173.455 235.763 173.471 236.07 173.483 236.28C173.489 236.384 173.494 236.465 173.498 236.521C173.5 236.549 173.501 236.57 173.502 236.585C173.503 236.593 173.503 236.599 173.504 236.603C173.504 236.605 173.504 236.607 173.504 236.608C173.504 236.609 173.504 236.609 173.504 236.61C173.504 236.61 173.504 236.611 175 236.5ZM173.681 237.321L173.978 237.598L176.022 235.402L175.725 235.125L173.681 237.321ZM176.5 241C176.5 239.32 176.395 237.663 176.191 236.037L173.214 236.41C173.403 237.913 173.5 239.445 173.5 241H176.5ZM137 280.5C158.815 280.5 176.5 262.815 176.5 241H173.5C173.5 261.158 157.158 277.5 137 277.5V280.5ZM97.5 241C97.5 262.815 115.185 280.5 137 280.5V277.5C116.842 277.5 100.5 261.158 100.5 241H97.5ZM137 201.5C115.185 201.5 97.5 219.185 97.5 241H100.5C100.5 220.842 116.842 204.5 137 204.5V201.5ZM139.139 201.557C138.431 201.519 137.717 201.5 137 201.5V204.5C137.664 204.5 138.324 204.518 138.979 204.553L139.139 201.557ZM137.978 204.098L138.037 204.153L140.081 201.957L140.022 201.902L137.978 204.098ZM179.459 188.92C172.783 195.357 162.769 198.54 154.233 200.087C149.993 200.855 146.18 201.208 143.428 201.37C142.053 201.45 140.945 201.483 140.185 201.495C139.804 201.502 139.511 201.503 139.315 201.502C139.217 201.502 139.143 201.502 139.095 201.501C139.07 201.501 139.053 201.501 139.041 201.5C139.036 201.5 139.032 201.5 139.029 201.5C139.028 201.5 139.027 201.5 139.027 201.5C139.027 201.5 139.027 201.5 139.027 201.5C139.027 201.5 139.027 201.5 139 203C138.973 204.5 138.973 204.5 138.974 204.5C138.974 204.5 138.975 204.5 138.975 204.5C138.977 204.5 138.979 204.5 138.981 204.5C138.985 204.5 138.991 204.5 138.999 204.5C139.014 204.5 139.036 204.501 139.064 204.501C139.121 204.502 139.203 204.502 139.31 204.502C139.523 204.503 139.834 204.501 140.233 204.495C141.032 204.482 142.182 204.448 143.603 204.365C146.445 204.198 150.382 203.833 154.767 203.038C163.481 201.46 174.217 198.143 181.541 191.08L179.459 188.92ZM194 144C192.5 144.023 192.5 144.023 192.5 144.023C192.5 144.023 192.5 144.023 192.5 144.023C192.5 144.024 192.5 144.025 192.5 144.026C192.5 144.03 192.5 144.035 192.5 144.041C192.501 144.055 192.501 144.077 192.501 144.106C192.502 144.165 192.502 144.253 192.502 144.37C192.502 144.604 192.501 144.951 192.494 145.4C192.481 146.299 192.446 147.602 192.361 149.21C192.192 152.428 191.821 156.855 191.02 161.692C189.402 171.462 186.085 182.531 179.459 188.92L181.541 191.08C188.915 183.969 192.348 172.038 193.98 162.183C194.804 157.207 195.183 152.665 195.357 149.368C195.444 147.718 195.48 146.377 195.494 145.445C195.501 144.979 195.502 144.616 195.502 144.367C195.502 144.242 195.502 144.147 195.501 144.081C195.501 144.048 195.5 144.023 195.5 144.006C195.5 143.997 195.5 143.99 195.5 143.985C195.5 143.983 195.5 143.981 195.5 143.98C195.5 143.979 195.5 143.978 195.5 143.978C195.5 143.977 195.5 143.977 194 144ZM195.15 143.021L195.023 142.903L192.977 145.097L193.103 145.214L195.15 143.021ZM192.5 141C192.5 142.09 192.544 143.171 192.631 144.239L195.621 143.996C195.541 143.008 195.5 142.009 195.5 141H192.5ZM232 101.5C210.185 101.5 192.5 119.185 192.5 141H195.5C195.5 120.842 211.842 104.5 232 104.5V101.5ZM271.5 141C271.5 119.185 253.815 101.5 232 101.5V104.5C252.158 104.5 268.5 120.842 268.5 141H271.5Z" fill="white"/>
<path d="M134.497 176.997L134.516 175.497L130.641 175.447L133.472 178.093L134.497 176.997ZM134.5 177L134.567 178.498L138.13 178.339L135.524 175.904L134.5 177ZM78 234.5L76.9781 235.598L79.7785 238.204L79.4959 234.389L78 234.5ZM77.7027 234.223L78.7245 233.125L75.7002 230.311L76.2143 234.41L77.7027 234.223ZM42.0589 201.055L41.9789 202.553L46.1072 202.773L43.0808 199.957L42.0589 201.055ZM42 201L42.0273 199.5L38.11 199.429L40.9781 202.098L42 201ZM97 142L98.0235 140.903L95.4459 138.498L95.5002 142.023L97 142ZM97.1261 142.118L96.1026 143.214L98.9347 145.858L98.6211 141.996L97.1261 142.118ZM135 178.5C156.815 178.5 174.5 160.815 174.5 139H171.5C171.5 159.158 155.158 175.5 135 175.5V178.5ZM134.477 178.497C134.651 178.499 134.825 178.5 135 178.5V175.5C134.838 175.5 134.677 175.499 134.516 175.497L134.477 178.497ZM135.524 175.904L135.521 175.901L133.472 178.093L133.476 178.096L135.524 175.904ZM89.6361 193.979C95.54 187.131 106.6 183.209 116.51 181.027C121.413 179.948 125.936 179.315 129.234 178.952C130.882 178.771 132.222 178.657 133.146 178.589C133.609 178.555 133.967 178.532 134.208 178.518C134.329 178.511 134.42 178.506 134.481 178.503C134.511 178.501 134.533 178.5 134.548 178.499C134.555 178.499 134.56 178.499 134.563 178.499C134.565 178.499 134.566 178.499 134.567 178.499C134.567 178.498 134.567 178.498 134.567 178.498C134.567 178.498 134.567 178.498 134.5 177C134.433 175.502 134.432 175.502 134.432 175.502C134.432 175.502 134.431 175.502 134.43 175.502C134.429 175.502 134.427 175.502 134.424 175.502C134.419 175.502 134.413 175.502 134.404 175.503C134.386 175.504 134.36 175.505 134.326 175.507C134.259 175.51 134.161 175.515 134.033 175.523C133.778 175.538 133.404 175.562 132.926 175.597C131.97 175.667 130.594 175.784 128.906 175.97C125.533 176.341 120.899 176.989 115.865 178.098C105.9 180.291 93.96 184.369 87.3639 192.021L89.6361 193.979ZM78 234.5C79.4959 234.389 79.4959 234.389 79.4959 234.39C79.4959 234.39 79.4959 234.39 79.4959 234.389C79.4959 234.389 79.4958 234.388 79.4958 234.387C79.4956 234.385 79.4953 234.381 79.4949 234.375C79.4942 234.364 79.493 234.347 79.4914 234.323C79.4883 234.276 79.4837 234.203 79.4781 234.107C79.467 233.914 79.4521 233.626 79.4373 233.252C79.4078 232.505 79.379 231.414 79.3828 230.059C79.3905 227.346 79.529 223.58 80.0511 219.372C81.1025 210.899 83.6805 200.888 89.6361 193.979L87.3639 192.021C80.8195 199.612 78.1475 210.351 77.0739 219.003C76.5335 223.358 76.3908 227.248 76.3828 230.05C76.3788 231.453 76.4086 232.585 76.4396 233.371C76.4552 233.763 76.471 234.07 76.4831 234.28C76.4891 234.384 76.4942 234.465 76.4979 234.521C76.4997 234.549 76.5012 234.57 76.5023 234.585C76.5028 234.593 76.5032 234.599 76.5035 234.603C76.5037 234.605 76.5038 234.607 76.5039 234.608C76.5039 234.609 76.504 234.609 76.504 234.61C76.5041 234.61 76.5041 234.611 78 234.5ZM76.6808 235.321L76.9781 235.598L79.0219 233.402L78.7245 233.125L76.6808 235.321ZM79.5 239C79.5 237.32 79.395 235.663 79.191 234.037L76.2143 234.41C76.4028 235.913 76.5 237.445 76.5 239H79.5ZM40 278.5C61.8152 278.5 79.5 260.815 79.5 239H76.5C76.5 259.158 60.1584 275.5 40 275.5V278.5ZM0.5 239C0.5 260.815 18.1848 278.5 40 278.5V275.5C19.8416 275.5 3.5 259.158 3.5 239H0.5ZM40 199.5C18.1848 199.5 0.5 217.185 0.5 239H3.5C3.5 218.842 19.8416 202.5 40 202.5V199.5ZM42.1389 199.557C41.4306 199.519 40.7175 199.5 40 199.5V202.5C40.6641 202.5 41.3239 202.518 41.9789 202.553L42.1389 199.557ZM40.9781 202.098L41.0371 202.153L43.0808 199.957L43.0219 199.902L40.9781 202.098ZM82.4588 186.92C75.7834 193.357 65.7693 196.54 57.2326 198.087C52.9931 198.855 49.1801 199.208 46.4278 199.37C45.0527 199.45 43.945 199.483 43.1846 199.495C42.8044 199.502 42.5112 199.503 42.3149 199.502C42.2168 199.502 42.143 199.502 42.0946 199.501C42.0704 199.501 42.0526 199.501 42.0413 199.5C42.0357 199.5 42.0317 199.5 42.0293 199.5C42.0282 199.5 42.0274 199.5 42.0271 199.5C42.0269 199.5 42.0269 199.5 42.0268 199.5C42.027 199.5 42.0273 199.5 42 201C41.9727 202.5 41.9732 202.5 41.9738 202.5C41.9741 202.5 41.9748 202.5 41.9755 202.5C41.9768 202.5 41.9785 202.5 41.9807 202.5C41.985 202.5 41.991 202.5 41.9986 202.5C42.0139 202.5 42.0358 202.501 42.064 202.501C42.1206 202.502 42.2029 202.502 42.3096 202.502C42.523 202.503 42.8343 202.501 43.2334 202.495C44.0315 202.482 45.1817 202.448 46.6035 202.365C49.4449 202.198 53.3819 201.833 57.7674 201.038C66.4807 199.46 77.2166 196.143 84.5412 189.08L82.4588 186.92ZM97 142C95.5002 142.023 95.5002 142.023 95.5002 142.023C95.5002 142.023 95.5002 142.023 95.5002 142.023C95.5002 142.024 95.5002 142.025 95.5002 142.026C95.5003 142.03 95.5003 142.035 95.5004 142.041C95.5006 142.055 95.5008 142.077 95.5011 142.106C95.5015 142.165 95.5021 142.253 95.5022 142.37C95.5024 142.604 95.501 142.951 95.4943 143.4C95.4809 144.299 95.4463 145.602 95.3615 147.21C95.1917 150.428 94.8213 154.855 94.0202 159.692C92.4023 169.462 89.0847 180.531 82.4588 186.92L84.5412 189.08C91.9153 181.969 95.3477 170.038 96.9798 160.183C97.8037 155.207 98.1833 150.665 98.3573 147.368C98.4443 145.718 98.48 144.377 98.494 143.445C98.5009 142.979 98.5024 142.616 98.5022 142.367C98.5021 142.242 98.5015 142.147 98.501 142.081C98.5007 142.048 98.5004 142.023 98.5002 142.006C98.5001 141.997 98.5 141.99 98.4999 141.985C98.4999 141.983 98.4999 141.981 98.4999 141.98C98.4999 141.979 98.4998 141.978 98.4998 141.978C98.4998 141.977 98.4998 141.977 97 142ZM98.1495 141.021L98.0235 140.903L95.9765 143.097L96.1026 143.214L98.1495 141.021ZM95.5 139C95.5 140.09 95.5442 141.171 95.631 142.239L98.6211 141.996C98.5409 141.008 98.5 140.009 98.5 139H95.5ZM135 99.5C113.185 99.5 95.5 117.185 95.5 139H98.5C98.5 118.842 114.842 102.5 135 102.5V99.5ZM174.5 139C174.5 117.185 156.815 99.5 135 99.5V102.5C155.158 102.5 171.5 118.842 171.5 139H174.5Z" fill="white"/>
<path d="M134.497 77.9967L134.516 76.4969L130.641 76.4466L133.472 79.0927L134.497 77.9967ZM134.5 78L134.567 79.4985L138.13 79.339L135.524 76.9041L134.5 78ZM78 135.5L76.9781 136.598L79.7785 139.204L79.4959 135.389L78 135.5ZM77.7027 135.223L78.7245 134.125L75.7002 131.311L76.2143 135.41L77.7027 135.223ZM42.0589 102.055L41.9789 103.553L46.1072 103.773L43.0808 100.957L42.0589 102.055ZM42 102L42.0273 100.5L38.11 100.429L40.9781 103.098L42 102ZM97 43L98.0235 41.9034L95.4459 39.4976L95.5002 43.0231L97 43ZM97.1261 43.1177L96.1026 44.2142L98.9347 46.8576L98.6211 42.9962L97.1261 43.1177ZM135 79.5C156.815 79.5 174.5 61.8152 174.5 40H171.5C171.5 60.1584 155.158 76.5 135 76.5V79.5ZM134.477 79.4966C134.651 79.4989 134.825 79.5 135 79.5V76.5C134.838 76.5 134.677 76.499 134.516 76.4969L134.477 79.4966ZM135.524 76.9041L135.521 76.9008L133.472 79.0927L133.476 79.0959L135.524 76.9041ZM89.6361 94.9794C95.54 88.1309 106.6 84.2089 116.51 82.0274C121.413 80.9481 125.936 80.315 129.234 79.9519C130.882 79.7705 132.222 79.6569 133.146 79.5887C133.609 79.5546 133.967 79.5319 134.208 79.5178C134.329 79.5108 134.42 79.5059 134.481 79.5028C134.511 79.5012 134.533 79.5001 134.548 79.4994C134.555 79.4991 134.56 79.4988 134.563 79.4987C134.565 79.4986 134.566 79.4985 134.567 79.4985C134.567 79.4985 134.567 79.4985 134.567 79.4985C134.567 79.4985 134.567 79.4985 134.5 78C134.433 76.5015 134.432 76.5015 134.432 76.5015C134.432 76.5016 134.431 76.5016 134.43 76.5016C134.429 76.5017 134.427 76.5018 134.424 76.5019C134.419 76.5021 134.413 76.5024 134.404 76.5029C134.386 76.5037 134.36 76.505 134.326 76.5067C134.259 76.5102 134.161 76.5155 134.033 76.5229C133.778 76.5379 133.404 76.5616 132.926 76.5968C131.97 76.6673 130.594 76.7842 128.906 76.9699C125.533 77.3413 120.899 77.9894 115.865 79.0976C105.9 81.2911 93.96 85.3691 87.3639 93.0206L89.6361 94.9794ZM78 135.5C79.4959 135.389 79.4959 135.389 79.4959 135.39C79.4959 135.39 79.4959 135.39 79.4959 135.389C79.4959 135.389 79.4958 135.388 79.4958 135.387C79.4956 135.385 79.4953 135.381 79.4949 135.375C79.4942 135.364 79.493 135.347 79.4914 135.323C79.4883 135.276 79.4837 135.203 79.4781 135.107C79.467 134.914 79.4521 134.626 79.4373 134.252C79.4078 133.505 79.379 132.414 79.3828 131.059C79.3905 128.346 79.529 124.58 80.0511 120.372C81.1025 111.899 83.6805 101.888 89.6361 94.9794L87.3639 93.0206C80.8195 100.612 78.1475 111.351 77.0739 120.003C76.5335 124.358 76.3908 128.248 76.3828 131.05C76.3788 132.453 76.4086 133.585 76.4396 134.371C76.4552 134.763 76.471 135.07 76.4831 135.28C76.4891 135.384 76.4942 135.465 76.4979 135.521C76.4997 135.549 76.5012 135.57 76.5023 135.585C76.5028 135.593 76.5032 135.599 76.5035 135.603C76.5037 135.605 76.5038 135.607 76.5039 135.608C76.5039 135.609 76.504 135.609 76.504 135.61C76.5041 135.61 76.5041 135.611 78 135.5ZM76.6808 136.321L76.9781 136.598L79.0219 134.402L78.7245 134.125L76.6808 136.321ZM79.5 140C79.5 138.32 79.395 136.663 79.191 135.037L76.2143 135.41C76.4028 136.913 76.5 138.445 76.5 140H79.5ZM40 179.5C61.8152 179.5 79.5 161.815 79.5 140H76.5C76.5 160.158 60.1584 176.5 40 176.5V179.5ZM0.5 140C0.5 161.815 18.1848 179.5 40 179.5V176.5C19.8416 176.5 3.5 160.158 3.5 140H0.5ZM40 100.5C18.1848 100.5 0.5 118.185 0.5 140H3.5C3.5 119.842 19.8416 103.5 40 103.5V100.5ZM42.1389 100.557C41.4306 100.519 40.7175 100.5 40 100.5V103.5C40.6641 103.5 41.3239 103.518 41.9789 103.553L42.1389 100.557ZM40.9781 103.098L41.0371 103.153L43.0808 100.957L43.0219 100.902L40.9781 103.098ZM82.4588 87.9202C75.7834 94.3573 65.7693 97.54 57.2326 99.0865C52.9931 99.8545 49.1801 100.208 46.4278 100.37C45.0527 100.45 43.945 100.483 43.1846 100.495C42.8044 100.502 42.5112 100.503 42.3149 100.502C42.2168 100.502 42.143 100.502 42.0946 100.501C42.0704 100.501 42.0526 100.501 42.0413 100.5C42.0357 100.5 42.0317 100.5 42.0293 100.5C42.0282 100.5 42.0274 100.5 42.0271 100.5C42.0269 100.5 42.0269 100.5 42.0268 100.5C42.027 100.5 42.0273 100.5 42 102C41.9727 103.5 41.9732 103.5 41.9738 103.5C41.9741 103.5 41.9748 103.5 41.9755 103.5C41.9768 103.5 41.9785 103.5 41.9807 103.5C41.985 103.5 41.991 103.5 41.9986 103.5C42.0139 103.5 42.0358 103.501 42.064 103.501C42.1206 103.502 42.2029 103.502 42.3096 103.502C42.523 103.503 42.8343 103.501 43.2334 103.495C44.0315 103.482 45.1817 103.448 46.6035 103.365C49.4449 103.198 53.3819 102.833 57.7674 102.038C66.4807 100.46 77.2166 97.1427 84.5412 90.0798L82.4588 87.9202ZM97 43C95.5002 43.0231 95.5002 43.0229 95.5002 43.0228C95.5002 43.0229 95.5002 43.023 95.5002 43.0233C95.5002 43.0238 95.5002 43.0249 95.5002 43.0264C95.5003 43.0295 95.5003 43.0345 95.5004 43.0415C95.5006 43.0554 95.5008 43.0771 95.5011 43.1062C95.5015 43.1645 95.5021 43.2529 95.5022 43.3698C95.5024 43.6036 95.501 43.9513 95.4943 44.4004C95.4809 45.2988 95.4463 46.6021 95.3615 48.21C95.1917 51.4283 94.8213 55.855 94.0202 60.6924C92.4023 70.4617 89.0847 81.531 82.4588 87.9202L84.5412 90.0798C91.9153 82.969 95.3477 71.0383 96.9798 61.1826C97.8037 56.2075 98.1833 51.6655 98.3573 48.3681C98.4443 46.7182 98.48 45.3769 98.494 44.4453C98.5009 43.9793 98.5024 43.6156 98.5022 43.3668C98.5021 43.2423 98.5015 43.1466 98.501 43.0811C98.5007 43.0483 98.5004 43.0231 98.5002 43.0057C98.5001 42.997 98.5 42.9902 98.4999 42.9854C98.4999 42.983 98.4999 42.9811 98.4999 42.9797C98.4999 42.979 98.4998 42.9783 98.4998 42.9779C98.4998 42.9774 98.4998 42.9769 97 43ZM98.1495 42.0211L98.0235 41.9034L95.9765 44.0966L96.1026 44.2142L98.1495 42.0211ZM95.5 40C95.5 41.0903 95.5442 42.1705 95.631 43.2391L98.6211 42.9962C98.5409 42.0084 98.5 41.0091 98.5 40H95.5ZM135 0.5C113.185 0.5 95.5 18.1848 95.5 40H98.5C98.5 19.8416 114.842 3.5 135 3.5V0.5ZM174.5 40C174.5 18.1848 156.815 0.5 135 0.5V3.5C155.158 3.5 171.5 19.8416 171.5 40H174.5Z" fill="white"/>
</g>
<defs>
<filter id="filter0_b" x="-7.5" y="-7.5" width="287" height="296" filterUnits="userSpaceOnUse" color-interpolation-filters="sRGB">
<feFlood flood-opacity="0" result="BackgroundImageFix"/>
<feGaussianBlur in="BackgroundImage" stdDeviation="4"/>
<feComposite in2="SourceAlpha" operator="in" result="effect1_backgroundBlur"/>
<feBlend mode="normal" in="SourceGraphic" in2="effect1_backgroundBlur" result="shape"/>
</filter>
</defs>
</svg>
