<svg width="165" height="64" fill="none" xmlns="http://www.w3.org/2000/svg"><path fill-rule="evenodd" clip-rule="evenodd" d="M85.62 20.305v4.215c0 2.566-.623 4.529-1.865 5.89-1.243 1.361-3.078 2.042-5.503 2.042-2.426 0-4.261-.687-5.504-2.062-1.243-1.375-1.864-3.347-1.864-5.915V7.977c0-2.568.621-4.54 1.864-5.915C73.991.688 75.826 0 78.252 0c2.425 0 4.26.688 5.503 2.062 1.242 1.376 1.864 3.347 1.864 5.915v3.082h-4.672v-3.4c0-1.148-.232-1.956-.697-2.424-.464-.468-1.085-.702-1.864-.702-.779 0-1.4.234-1.864.703-.465.47-.696 1.28-.696 2.43V24.83c0 1.15.231 1.953.696 2.407.464.454 1.085.681 1.864.681.779 0 1.4-.227 1.864-.68.465-.453.697-1.253.697-2.402v-4.532h4.672Zm13.79 2.583L102.78.363h6.873v31.726h-4.672V9.337l-3.414 22.752h-4.673L93.211 9.654v22.435h-4.314V.363h6.874l3.64 22.525Zm19.271-.861h4.763l-2.382-16.044-2.381 16.044Zm11.277 10.062h-4.987l-.853-5.756h-6.066l-.853 5.756h-4.538L117.693.363h7.233l5.032 31.726Zm7.952-27.194v10.741h2.336c.778 0 1.377-.21 1.796-.634.419-.423.63-1.208.63-2.357V7.887c0-1.149-.211-1.934-.63-2.357-.419-.423-1.018-.635-1.796-.635h-2.336Zm2.336-4.532c2.485 0 4.335.665 5.548 1.994 1.213 1.33 1.82 3.278 1.82 5.847v4.124c0 2.569-.607 4.517-1.82 5.847s-3.063 1.994-5.548 1.994h-2.336v11.92h-4.942V.363h7.278Zm9.48 0H165v4.532h-5.166v27.194h-4.942V4.895h-5.166V.363ZM79.808 42.27c0-1.007-.211-1.715-.634-2.126-.424-.41-.99-.616-1.699-.616-.71 0-1.276.206-1.699.616-.424.41-.635 1.119-.635 2.125v2.98h-4.257v-2.702c0-2.25.566-3.978 1.699-5.184 1.132-1.205 2.804-1.808 5.015-1.808 2.21 0 3.882.603 5.015 1.808 1.132 1.206 1.699 2.934 1.699 5.184v14.461c0 2.252-.567 3.98-1.699 5.185C81.48 63.398 79.808 64 77.598 64c-2.21 0-3.883-.596-5.015-1.79-1.133-1.193-1.7-2.913-1.7-5.162v-3.695h4.258v3.973c0 1.007.211 1.708.635 2.105.423.398.99.597 1.7.597.709 0 1.274-.2 1.698-.599.423-.399.634-1.104.634-2.116v-5.748h-3.725v-3.972h3.725v-5.324Zm12.118 21.412h-4.504v-27.81h4.504v11.92h5.117v-11.92h4.585v27.81h-4.585V51.764h-5.117v11.918Zm18.627-16.089h6.181v3.972h-6.181v8.144h7.778v3.973h-12.282v-27.81h12.282v3.974h-7.778v7.747Zm15.474-7.747v9.415h2.129c.709 0 1.255-.185 1.638-.556.381-.37.572-1.06.572-2.066v-4.171c0-1.007-.191-1.695-.572-2.066-.383-.37-.929-.556-1.638-.556h-2.129Zm2.129-3.973c2.265 0 3.95.583 5.056 1.748 1.105 1.166 1.658 2.874 1.658 5.125v3.615c0 2.252-.553 3.96-1.658 5.125-1.106 1.166-2.791 1.748-5.056 1.748h-2.129v10.448h-4.504v-27.81h6.633Zm13.714 27.809h-4.504v-27.81h11.914v3.974h-7.41v23.836Zm13.959-6.396c0 1.007.211 1.715.635 2.125.423.412.989.617 1.698.617.71 0 1.276-.205 1.7-.617.422-.41.634-1.118.634-2.125V42.269c0-1.006-.212-1.714-.634-2.125-.424-.41-.99-.616-1.7-.616-.709 0-1.275.206-1.698.616-.424.41-.635 1.119-.635 2.125v15.017Zm-4.503-14.739c0-2.25.587-3.978 1.76-5.184 1.174-1.205 2.866-1.808 5.076-1.808 2.212 0 3.903.603 5.078 1.808 1.172 1.206 1.76 2.934 1.76 5.184v14.461c0 2.252-.588 3.98-1.76 5.185-1.175 1.205-2.866 1.807-5.078 1.807-2.21 0-3.902-.602-5.076-1.807-1.173-1.206-1.76-2.933-1.76-5.185v-14.46Z" fill="#fff"/><path fill-rule="evenodd" clip-rule="evenodd" d="M53.099 63.778c-2.206 0-4.28-.894-5.839-2.515-1.561-1.62-2.42-3.776-2.42-6.072 0-2.292.859-4.448 2.416-6.067 1.56-1.622 3.635-2.516 5.84-2.516s4.278.89 5.835 2.512c3.219 3.35 3.219 8.799 0 12.147-1.557 1.62-3.629 2.51-5.832 2.51ZM8.258 17.6c-2.205 0-4.28-.894-5.84-2.517C.86 13.463 0 11.307 0 9.013 0 6.72.857 4.564 2.414 2.945 3.976 1.322 6.051.428 8.257.428c2.203 0 4.276.893 5.832 2.513 1.562 1.623 2.42 3.78 2.42 6.073 0 2.294-.858 4.45-2.418 6.073-1.558 1.62-3.63 2.513-5.833 2.513Z" fill="#EDC128"/><path fill-rule="evenodd" clip-rule="evenodd" d="M52.73 17.6c-2.206 0-4.279-.893-5.838-2.515-3.217-3.347-3.22-8.794-.005-12.14 1.56-1.622 3.634-2.517 5.841-2.517 2.205 0 4.278.894 5.837 2.515 3.217 3.347 3.217 8.796 0 12.148-1.558 1.617-3.631 2.51-5.834 2.51Z" fill="#4C98C0"/><path fill-rule="evenodd" clip-rule="evenodd" d="M8.472 63.778c-2.205 0-4.28-.894-5.841-2.515C1.072 59.642.214 57.487.216 55.192c0-2.293.86-4.449 2.42-6.07a7.62 7.62 0 0 1 1.162-.983c.141-.103.272-.184.406-.269.305-.182.61-.348.894-.484.154-.072.313-.147.48-.213a8.298 8.298 0 0 1 1.007-.31l.21-.06c.042-.011.083-.026.126-.037l1.837-.13c.234.01.483.041.749.077l.105.014c.062.009.147.015.231.02l.075.006.084.017h.072c.135.005.27.008.402.008 3.167 0 6.294-1.403 8.579-3.848 2.275-2.434 3.528-5.709 3.438-8.986l-.002-.097-.018-.101c-.017-.092-.022-.185-.028-.277a7.214 7.214 0 0 0-.03-.33l-.02-.193c-.018-.165-.036-.326-.046-.49l.14-1.918c.01-.048.026-.092.039-.139l.033-.118c.085-.363.175-.728.308-1.08.067-.2.132-.349.203-.5a9.7 9.7 0 0 1 .478-.953c.078-.135.153-.272.243-.405.333-.506.637-.893.951-1.22 1.559-1.621 3.631-2.514 5.84-2.514 2.205 0 4.28.891 5.84 2.511 3.215 3.348 3.212 8.797-.007 12.145a7.965 7.965 0 0 1-1.562 1.243 9.27 9.27 0 0 1-.894.49 7.05 7.05 0 0 1-.478.214 7.66 7.66 0 0 1-1.002.308l-.198.057c-.046.013-.089.028-.134.04l-1.855.137a8.205 8.205 0 0 1-.687-.072l-.165-.021a2.352 2.352 0 0 0-.229-.021l-.065-.007-.095-.019h-.074a10.442 10.442 0 0 0-.403-.006c-3.167 0-6.292 1.402-8.576 3.846-2.276 2.436-3.53 5.713-3.44 8.99l.003.098.018.097c.017.093.02.185.028.278.007.11.017.219.03.328.003.066.016.184.03.3.014.131.03.26.03.39v.047l-.133 1.838c-.008.039-.067.25-.084.317-.09.396-.19.748-.303 1.062a5.359 5.359 0 0 1-.197.486c-.143.326-.299.639-.475.957-.079.13-.17.282-.264.43a8.468 8.468 0 0 1-.937 1.192c-1.555 1.62-3.628 2.514-5.833 2.514h-.001Z" fill="#EDC128"/><path fill-rule="evenodd" clip-rule="evenodd" d="M30.763 63.778c-2.207 0-4.281-.894-5.841-2.517-1.559-1.62-2.417-3.775-2.418-6.07-.001-2.292.857-4.447 2.414-6.064a8.163 8.163 0 0 1 1.173-.994c.122-.086.254-.17.392-.252.303-.19.595-.349.898-.494.16-.075.319-.151.479-.214.306-.117.64-.22.994-.3 0 0 .29-.088.328-.098l1.866-.142c.22.01.458.044.707.077l.138.019c.091.01.168.017.245.018.03.003.061.003.09.006l.06.008.078.008c.136.004.275.008.411.008 3.161-.002 6.283-1.402 8.563-3.845 2.275-2.432 3.528-5.71 3.438-8.988l-.011-.4-.034-.044c-.002-.014-.002-.03-.003-.044a6.837 6.837 0 0 0-.02-.282l-.03-.276c-.017-.151-.036-.3-.041-.452l.128-1.858c.01-.045.074-.275.089-.344.105-.444.197-.77.302-1.058.059-.173.13-.331.203-.497.132-.3.287-.604.476-.94l.036-.06c.064-.113.125-.225.2-.334.338-.512.638-.898.955-1.228 1.56-1.623 3.636-2.516 5.842-2.516 2.205 0 4.276.892 5.835 2.512 3.217 3.347 3.217 8.797 0 12.148a8.427 8.427 0 0 1-1.17.984c-.092.067-.182.122-.271.178l-.145.093c-.276.17-.577.334-.87.474-.164.077-.32.151-.484.215a8.079 8.079 0 0 1-1.009.31c-.08.019-.146.04-.21.06-.044.012-.087.027-.13.037l-1.835.132c-.268-.012-.559-.053-.84-.091-.096-.013-.17-.016-.243-.02-.028-.002-.056-.002-.084-.006l-.157-.017a10.13 10.13 0 0 0-.407-.008c-3.164 0-6.286 1.401-8.568 3.844-2.273 2.435-3.525 5.71-3.433 8.991l.002.096.018.095c.018.096.022.196.028.293.007.101.014.2.025.297.006.081.018.185.028.286.016.145.033.291.037.436l-.136 1.885-.08.295a9.24 9.24 0 0 1-.303 1.078c-.055.154-.12.303-.187.459l-.023.054c-.137.307-.29.61-.462.907a9.59 9.59 0 0 1-.255.426 8.667 8.667 0 0 1-.954 1.218c-1.552 1.615-3.62 2.506-5.824 2.506ZM8.476 40.596c-2.206 0-4.28-.893-5.838-2.513-1.56-1.624-2.42-3.78-2.42-6.074-.001-2.292.855-4.445 2.414-6.066a8.291 8.291 0 0 1 1.577-1.254 9.665 9.665 0 0 1 1.374-.7c.303-.117.638-.219.987-.3l.21-.061c.039-.012.076-.025.114-.035l1.868-.14c.243.011.505.047.78.086l.058.008c.096.01.17.015.245.018.027.001.054.001.08.005l.08.015.077.003c.138.004.275.007.412.007 3.16 0 6.281-1.401 8.562-3.845 2.274-2.435 3.526-5.712 3.434-8.99l-.002-.095-.018-.093c-.019-.104-.021-.21-.028-.315a6.07 6.07 0 0 0-.02-.264l-.027-.265a4.429 4.429 0 0 1-.042-.476l.123-1.803.012-.042v-.036c.01-.04.078-.28.078-.28.105-.462.198-.795.303-1.09.059-.162.132-.324.206-.492a9.7 9.7 0 0 1 .473-.939l.029-.049a8.288 8.288 0 0 1 1.164-1.576c1.56-1.623 3.634-2.517 5.842-2.517 2.205 0 4.278.893 5.839 2.514 3.217 3.348 3.214 8.797-.005 12.144a7.85 7.85 0 0 1-1.162.98c-.127.093-.236.16-.348.23l-.061.036a9.325 9.325 0 0 1-1.363.7c-.31.12-.639.22-1.01.31-.077.02-.148.04-.218.061-.042.012-.085.026-.13.037l-1.829.133a9.627 9.627 0 0 1-.74-.078l-.111-.015c-.085-.01-.163-.014-.238-.02-.03-.001-.062-.001-.092-.007l-.062-.008-.08-.006a10.146 10.146 0 0 0-.41-.008c-3.16 0-6.282 1.4-8.563 3.841-2.275 2.436-3.528 5.714-3.439 8.995l.003.095.016.095c.02.095.024.195.03.292.006.101.014.2.024.3l.03.284c.016.144.034.285.036.427l-.131 1.872c-.01.047-.026.096-.04.147l-.046.168a8.791 8.791 0 0 1-.3 1.077c-.058.162-.134.33-.209.502a9.556 9.556 0 0 1-.468.924 8.203 8.203 0 0 1-1.2 1.635c-1.558 1.62-3.628 2.51-5.83 2.51Z" fill="#4C98C0"/></svg>