<svg width="147" height="152" fill="none" xmlns="http://www.w3.org/2000/svg"><g opacity=".5" filter="url(#filter0_b)"><circle cx="22.257" cy="22.257" r="18.757" stroke="#fff" stroke-width="3"/><circle cx="124.609" cy="22.257" r="18.757" stroke="#fff" stroke-width="3"/><circle cx="124.609" cy="129.407" r="18.757" stroke="#fff" stroke-width="3"/><path d="M124.342 96.354l.019-1.5-3.884-.05 2.842 2.647 1.023-1.097zm.002.002l.067 1.498 3.57-.16-2.615-2.436-1.022 1.098zm-24.522 8.529l1.136.98-1.136-.98zm-5.597 22.123l-1.022 1.098 2.8 2.606-.282-3.815-1.496.111zm-.158-.147l1.022-1.098-3.024-2.814.514 4.099 1.488-.187zm-19.002-17.682l-.08 1.498 4.128.22-3.026-2.816-1.022 1.098zm-.031-.029l.027-1.5-3.918-.071 2.869 2.669 1.022-1.098zm22.123-6.93l-1.042-1.08 1.042 1.08zm7.196-24.522l1.024-1.097-2.578-2.405.054 3.525 1.5-.023zm.068.064l-1.023 1.096 2.832 2.644-.313-3.862-1.496.122zm20.19 20.094c12.017 0 21.758-9.741 21.758-21.757h-3c0 10.359-8.398 18.757-18.758 18.757v3zm-.289-.002l.289.002v-3c-.083 0-.166 0-.25-.002l-.039 3zm1.044-2.596l-.002-.001-2.045 2.194.002.002 2.045-2.195zm-24.408 10.607c2.986-3.464 8.676-5.518 13.946-6.678a64.542 64.542 0 018.77-1.286 37.322 37.322 0 01.696-.045l.033-.001h.008l-.067-1.5-.068-1.498h-.005l-.012.001-.044.002-.161.01a60.795 60.795 0 00-2.769.241c-1.816.2-4.311.548-7.026 1.146-5.325 1.172-11.895 3.382-15.573 7.649l2.272 1.959zm-6.733 21.143l1.496-.11v-.005l-.002-.025-.007-.11a39.887 39.887 0 01-.05-2.115c.004-1.426.077-3.404.351-5.613.555-4.475 1.908-9.642 4.945-13.165l-2.272-1.959c-3.626 4.206-5.073 10.101-5.65 14.755a50.278 50.278 0 00-.374 5.973 42.808 42.808 0 00.055 2.297l.008.134.003.038v.01a.07.07 0 000 .004v.001l1.497-.11zm-1.18.951l.158.147 2.043-2.196-.157-.147-2.044 2.196zm2.68 1.448c0-.925-.057-1.837-.17-2.732l-2.977.373c.097.772.147 1.559.147 2.359h3zm-21.757 21.757c12.016 0 21.757-9.741 21.757-21.757h-3c0 10.359-8.398 18.757-18.757 18.757v3zm-21.757-21.757c0 12.016 9.741 21.757 21.757 21.757v-3c-10.36 0-18.757-8.398-18.757-18.757h-3zm21.757-21.757c-12.016 0-21.757 9.741-21.757 21.757h3c0-10.359 8.398-18.757 18.757-18.757v-3zm1.177.031c-.39-.021-.782-.031-1.177-.031v3c.341 0 .68.009 1.017.027l.16-2.996zm-1.133 2.567l.031.029 2.044-2.196-.032-.029-2.043 2.196zm22.103-9.108c-3.407 3.285-8.576 4.951-13.086 5.768a48.15 48.15 0 01-5.676.674c-.722.042-1.303.059-1.7.065-.198.004-.35.004-.45.004l-.112-.001h-.03l-.027 1.5-.027 1.5h.054l.136.001c.118 0 .288 0 .506-.004a42.055 42.055 0 001.826-.071 51.157 51.157 0 006.035-.716c4.686-.849 10.578-2.649 14.634-6.56l-2.083-2.16zm8.238-23.442l-1.5.023.001.007v.168a52.895 52.895 0 01-.074 2.543 60.099 60.099 0 01-.706 6.576c-.859 5.188-2.601 10.887-5.959 14.125l2.083 2.16c4.106-3.96 5.962-10.52 6.835-15.795a63.284 63.284 0 00.817-9.026c.004-.252.005-.45.004-.586v-.158l-.001-.042v-.017l-1.5.022zm1.092-1.033l-.068-.064-2.047 2.194.068.063 2.047-2.193zm-2.591-.566c0 .6.025 1.195.072 1.784l2.991-.243a18.71 18.71 0 01-.063-1.541h-3zm21.757-21.758c-12.016 0-21.757 9.741-21.757 21.758h3c0-10.36 8.398-18.758 18.757-18.758v-3zM146.369 76.1c0-12.017-9.741-21.758-21.758-21.758v3c10.36 0 18.758 8.398 18.758 18.758h3zM72.631 95.288l.02-1.5-3.88-.05 2.837 2.647 1.023-1.097zm.002.002l.067 1.498 3.566-.16-2.61-2.435-1.023 1.097zm-24.522 8.529l1.136.979-1.136-.979zm-5.597 22.123l-1.022 1.098 2.8 2.606-.282-3.815-1.496.111zm-.158-.147l1.022-1.098-3.024-2.814.514 4.099 1.488-.187zm-19.002-17.682l-.08 1.498 4.128.22-3.026-2.816-1.022 1.098zm-.031-.029l.027-1.5-3.918-.071 2.869 2.669 1.022-1.098zm22.123-6.93l-1.041-1.08 1.04 1.08zm7.196-24.522l1.024-1.097-2.578-2.406.054 3.526 1.5-.023zm.069.063l-1.024 1.097 2.832 2.644-.313-3.862-1.495.121zM72.9 96.79c12.016 0 21.757-9.741 21.757-21.758h-3c0 10.36-8.398 18.758-18.758 18.758v3zm-.29-.002l.29.002v-3c-.084 0-.167 0-.25-.002l-.04 3zm1.045-2.595l-.002-.002-2.046 2.194.001.001 2.047-2.193zm-24.409 10.605c2.986-3.463 8.676-5.517 13.946-6.677a64.546 64.546 0 018.77-1.286 36.675 36.675 0 01.696-.045l.033-.001h.008l-.067-1.5-.068-1.498h-.005l-.012.001-.044.002-.16.01a60.795 60.795 0 00-2.769.241c-1.817.2-4.312.548-7.027 1.146-5.325 1.172-11.895 3.382-15.573 7.649l2.272 1.958zm-6.733 21.144l1.496-.11v-.005l-.002-.025-.007-.11a39.922 39.922 0 01-.05-2.115 47.28 47.28 0 01.351-5.613c.556-4.476 1.908-9.642 4.945-13.166l-2.272-1.958c-3.626 4.206-5.073 10.101-5.65 14.754a50.275 50.275 0 00-.374 5.974 42.985 42.985 0 00.055 2.297 15.797 15.797 0 00.011.182v.005l1.497-.11zm-1.18.951l.158.147 2.044-2.196-.158-.147-2.044 2.196zm2.68 1.448c0-.925-.057-1.837-.17-2.732l-2.976.373c.096.772.146 1.559.146 2.359h3zm-21.757 21.757c12.016 0 21.757-9.741 21.757-21.757h-3c0 10.359-8.398 18.757-18.757 18.757v3zM.5 128.341c0 12.016 9.741 21.757 21.757 21.757v-3c-10.36 0-18.757-8.398-18.757-18.757h-3zm21.757-21.757C10.241 106.584.5 116.325.5 128.341h3c0-10.359 8.398-18.757 18.757-18.757v-3zm1.177.031c-.39-.021-.782-.031-1.177-.031v3c.341 0 .68.009 1.017.027l.16-2.996zm-1.133 2.567l.031.029 2.044-2.196-.032-.029-2.043 2.196zm22.104-9.108c-3.408 3.285-8.577 4.95-13.087 5.767-2.226.404-4.23.59-5.676.674-.722.043-1.303.06-1.7.066-.198.004-.35.004-.45.004l-.112-.001h-.03l-.027 1.5-.027 1.499h.002l.003.001h.049l.136.001a37.61 37.61 0 002.332-.075 50.978 50.978 0 006.035-.717c4.686-.849 10.578-2.648 14.634-6.56l-2.083-2.159zm8.237-23.442l-1.5.022v.008a4.318 4.318 0 01.002.168 53.496 53.496 0 01-.074 2.543 60.293 60.293 0 01-.707 6.576c-.86 5.188-2.601 10.887-5.959 14.125l2.083 2.159c4.106-3.959 5.962-10.52 6.835-15.794a63.325 63.325 0 00.817-9.026 37.223 37.223 0 00.004-.744v-.06l-1.5.023zm1.092-1.033l-.068-.064-2.047 2.193.068.064 2.047-2.193zm-2.59-.567c0 .601.024 1.196.071 1.785l2.99-.243a19.02 19.02 0 01-.062-1.542h-3zM72.9 53.275c-12.016 0-21.757 9.741-21.757 21.757h3c0-10.359 8.398-18.757 18.757-18.757v-3zm21.758 21.757c0-12.016-9.741-21.757-21.758-21.757v3c10.36 0 18.758 8.398 18.758 18.757h3zM72.631 42.513l.02-1.5-3.885-.05 2.843 2.647 1.022-1.097zm.002.001l.067 1.499 3.57-.16-2.615-2.436-1.022 1.097zm-24.522 8.53l1.136.98-1.136-.98zm-5.597 22.123l-1.022 1.098 2.8 2.606-.282-3.815-1.496.11zm-.158-.147l1.022-1.098-3.024-2.814.514 4.099 1.488-.187zM23.354 55.338l-.08 1.498 4.128.22-3.026-2.816-1.022 1.098zm-.031-.03l.027-1.5-3.918-.07 2.869 2.669 1.022-1.099zm22.123-6.93l-1.041-1.08 1.04 1.08zm7.196-24.521l1.024-1.097-2.578-2.406.054 3.526 1.5-.023zm.069.063l-1.024 1.097 2.832 2.643-.313-3.861-1.495.121zM72.9 44.014c12.016 0 21.757-9.74 21.757-21.757h-3c0 10.36-8.398 18.757-18.758 18.757v3zm-.29-.002c.097.002.193.002.29.002v-3l-.25-.001-.04 3zm1.044-2.595l-.002-.002-2.044 2.195.002.002 2.044-2.195zM49.247 52.023c2.986-3.463 8.676-5.518 13.946-6.678a64.55 64.55 0 018.77-1.285 38.059 38.059 0 01.696-.045l.033-.002h.008l-.067-1.499a250.833 250.833 0 00-.068-1.498h-.017l-.044.003a40.27 40.27 0 00-.762.049 67.564 67.564 0 00-9.194 1.348c-5.325 1.172-11.895 3.382-15.573 7.648l2.272 1.96zm-6.733 21.144l1.496-.11v-.006l-.002-.025-.007-.11a39.932 39.932 0 01-.05-2.116c.004-1.424.077-3.403.351-5.611.556-4.476 1.908-9.642 4.945-13.166l-2.272-1.959c-3.626 4.207-5.073 10.102-5.65 14.755a50.27 50.27 0 00-.374 5.974 42.932 42.932 0 00.055 2.296l.008.135.003.037v.011a.11.11 0 000 .003v.002l1.497-.11zm-1.18.951l.158.147 2.044-2.196-.158-.147-2.044 2.196zm2.68 1.448c0-.925-.057-1.837-.17-2.733l-2.976.374c.096.772.146 1.559.146 2.359h3zM22.257 97.323c12.016 0 21.757-9.741 21.757-21.757h-3c0 10.359-8.398 18.757-18.757 18.757v3zM.5 75.566c0 12.016 9.741 21.757 21.757 21.757v-3c-10.36 0-18.757-8.398-18.757-18.757h-3zm21.757-21.758C10.241 53.808.5 63.55.5 75.566h3c0-10.36 8.398-18.758 18.757-18.758v-3zm1.177.032c-.39-.021-.782-.032-1.177-.032v3c.341 0 .68.01 1.017.028l.16-2.996zm-1.133 2.567l.031.029 2.044-2.197-.032-.029-2.043 2.197zm22.104-9.108c-3.408 3.285-8.577 4.95-13.087 5.767-2.226.403-4.23.59-5.676.674a40.389 40.389 0 01-2.15.07 16.62 16.62 0 01-.137-.001h-.005l-.027 1.5-.027 1.5h.054a17.11 17.11 0 00.642-.003 43.397 43.397 0 001.826-.07 51.063 51.063 0 006.035-.718c4.686-.849 10.578-2.649 14.634-6.56l-2.083-2.16zm8.237-23.442l-1.5.022v.008a4.334 4.334 0 01.002.167 53.507 53.507 0 01-.074 2.543 60.294 60.294 0 01-.707 6.577c-.86 5.187-2.601 10.887-5.959 14.125l2.083 2.16c4.106-3.96 5.962-10.521 6.835-15.795a63.326 63.326 0 00.817-9.027 37.223 37.223 0 00.004-.743v-.06l-1.5.023zm1.092-1.033l-.068-.064-2.047 2.193.068.064 2.047-2.193zm-2.59-.567c0 .6.024 1.196.071 1.785l2.99-.243a19.024 19.024 0 01-.062-1.542h-3zM72.9.5c-12.016 0-21.757 9.741-21.757 21.757h3C54.143 11.897 62.541 3.5 72.9 3.5v-3zm21.758 21.757C94.658 10.241 84.917.5 72.9.5v3c10.36 0 18.758 8.398 18.758 18.757h3z" fill="#fff"/></g><defs><filter id="filter0_b" x="-7.5" y="-7.5" width="161.869" height="166.664" filterUnits="userSpaceOnUse" color-interpolation-filters="sRGB"><feFlood flood-opacity="0" result="BackgroundImageFix"/><feGaussianBlur in="BackgroundImage" stdDeviation="4"/><feComposite in2="SourceAlpha" operator="in" result="effect1_backgroundBlur"/><feBlend in="SourceGraphic" in2="effect1_backgroundBlur" result="shape"/></filter></defs></svg>