<svg width="76" height="18" fill="none" xmlns="http://www.w3.org/2000/svg"><path d="M6.779 9.53c0-.265-.05-.513-.15-.745a1.7 1.7 0 00-.397-.63 1.893 1.893 0 00-.63-.415 1.75 1.75 0 00-.762-.165c-.265 0-.514.05-.746.149a1.94 1.94 0 00-.613.414 2.308 2.308 0 00-.415.63c-.1.232-.149.48-.149.746 0 .265.05.514.15.746.099.232.237.436.414.613.176.166.38.304.613.414a1.996 1.996 0 001.508 0c.232-.1.431-.237.597-.414a1.94 1.94 0 00.414-.613c.11-.232.166-.475.166-.73zM3 18H0V5.254h3V6.2c.64-.807 1.514-1.21 2.619-1.21.608 0 1.171.122 1.69.365.53.232.99.552 1.376.96.387.41.685.89.895 1.443a4.73 4.73 0 01.332 1.773c0 .63-.11 1.216-.332 1.757a4.328 4.328 0 01-.895 1.426 4.04 4.04 0 01-1.342.961 4.096 4.096 0 01-1.691.348c-1.06 0-1.945-.364-2.652-1.094V18zm8.622-12.746h3v1.392c.32-.508.712-.895 1.176-1.16.464-.276 1.006-.414 1.625-.414h.248c.1 0 .21.01.332.033v2.867a2.85 2.85 0 00-1.293-.298c-.696 0-1.221.21-1.575.63-.342.409-.513 1.01-.513 1.806v3.647h-3V5.254zm10.619 4.21c0 .287.05.553.15.796.11.232.248.436.414.613.177.177.381.315.613.414a1.995 1.995 0 001.509 0c.243-.1.447-.237.613-.414a1.94 1.94 0 00.414-.613 1.86 1.86 0 00.166-.78c0-.265-.055-.513-.166-.745a1.894 1.894 0 00-.414-.63 1.72 1.72 0 00-.613-.414 1.984 1.984 0 00-1.509 0 1.94 1.94 0 00-.613.414 2.395 2.395 0 00-.414.613c-.1.232-.15.48-.15.746zm-3.165-.033c0-.63.127-1.216.38-1.757a4.223 4.223 0 011.062-1.425c.453-.41.989-.73 1.607-.962a5.9 5.9 0 012.056-.348c.729 0 1.403.116 2.022.348.63.221 1.171.536 1.624.945a4.09 4.09 0 011.077 1.442 4.34 4.34 0 01.382 1.84c0 .674-.133 1.293-.398 1.856a4.4 4.4 0 01-1.061 1.442 4.85 4.85 0 01-1.64.928 6.168 6.168 0 01-2.056.332c-.73 0-1.403-.11-2.022-.332a4.758 4.758 0 01-1.608-.944 4.462 4.462 0 01-1.044-1.459 4.66 4.66 0 01-.381-1.906zm14.937-4.177v4.79c0 1.05.508 1.575 1.525 1.575 1.016 0 1.524-.525 1.524-1.575v-4.79h3v5.37c0 1.15-.38 2.011-1.143 2.586-.752.574-1.879.862-3.381.862-1.503 0-2.636-.287-3.398-.862-.752-.575-1.127-1.437-1.127-2.586v-5.37h3zM44.885 9.48c0 .277.05.537.149.78.1.232.232.436.398.613.176.177.38.315.613.414a2.038 2.038 0 001.525 0c.243-.1.447-.237.613-.414a1.93 1.93 0 00.414-.613c.11-.232.166-.481.166-.746s-.055-.514-.166-.746a1.893 1.893 0 00-.414-.63 1.72 1.72 0 00-.613-.414 1.988 1.988 0 00-1.509 0 1.94 1.94 0 00-.613.414 2.393 2.393 0 00-.414.613c-.1.221-.15.464-.15.73zM48.664 0h3.016v13.757h-3.016v-.945c-.641.807-1.509 1.21-2.603 1.21a4.137 4.137 0 01-3.066-1.31 4.514 4.514 0 01-.911-1.441 4.999 4.999 0 01-.315-1.79c0-.608.099-1.183.298-1.724.21-.553.503-1.033.878-1.442a4.04 4.04 0 011.343-.961 4.127 4.127 0 011.74-.365c1.061 0 1.94.37 2.636 1.11V0zm8.058 0v13.757h-3V0h3zm5.295 12.597l-4.111-7.343h3.48l2.271 4.36 2.205-4.36h3.447L62.481 18h-3.365l2.9-5.403z" fill="#2C3646"/><circle cx="72.859" cy="12.776" r="2.417" fill="#1771F8"/></svg>