<svg width="12" height="9" viewBox="0 0 12 9" fill="none" xmlns="http://www.w3.org/2000/svg">
<path d="M10.8564 0.000744831C10.6104 0.00855887 10.3771 0.111953 10.2061 0.288972C7.88893 2.61114 6.13448 4.53759 3.95406 6.75528L1.55968 4.7304C1.46506 4.64984 1.3555 4.58869 1.23725 4.55048C1.119 4.51226 0.994385 4.49772 0.870514 4.50767C0.746643 4.51762 0.625945 4.55186 0.515311 4.60846C0.404677 4.66505 0.306274 4.74288 0.225721 4.83751C0.145168 4.93213 0.0840422 5.04171 0.0458347 5.15996C0.00762722 5.27821 -0.00691393 5.40282 0.00304135 5.52669C0.0129966 5.65056 0.0472533 5.77126 0.103856 5.88189C0.160458 5.99252 0.238297 6.09091 0.332929 6.17146L3.4072 8.77277C3.58854 8.92793 3.82182 9.00883 4.06029 8.99924C4.29876 8.98964 4.52479 8.89027 4.69307 8.72104C7.2351 6.17358 9.04813 4.13493 11.5511 1.62656C11.689 1.49339 11.7832 1.32146 11.8212 1.13355C11.8592 0.945638 11.8392 0.750624 11.7639 0.574328C11.6885 0.398031 11.5614 0.248783 11.3994 0.146352C11.2373 0.0439223 11.048 -0.00686041 10.8564 0.000744831Z" fill="#023869"/>
</svg>
