<svg width="42" height="42" viewBox="0 0 42 42" fill="none" xmlns="http://www.w3.org/2000/svg">
<path d="M22.4812 21L40.6932 2.78793C40.8896 2.59151 41 2.32511 41 2.04734C41 1.76957 40.8896 1.50317 40.6932 1.30676C40.4968 1.11035 40.2304 1 39.9527 1C39.6749 1 39.4085 1.11035 39.2121 1.30676L21 19.5188L2.78793 1.30676C2.59151 1.11035 2.32511 1 2.04734 1C1.76957 1 1.50317 1.11035 1.30676 1.30676C1.11035 1.50317 1 1.76957 1 2.04734C1 2.32511 1.11035 2.59151 1.30676 2.78793L19.5188 21L1.30676 39.2121C1.20951 39.3093 1.13236 39.4248 1.07972 39.5519C1.02709 39.6789 1 39.8151 1 39.9527C1 40.0902 1.02709 40.2264 1.07972 40.3535C1.13236 40.4805 1.20951 40.596 1.30676 40.6932C1.40401 40.7905 1.51947 40.8676 1.64654 40.9203C1.77361 40.9729 1.9098 41 2.04734 41C2.18488 41 2.32107 40.9729 2.44814 40.9203C2.57521 40.8676 2.69067 40.7905 2.78793 40.6932L21 22.4812L39.2121 40.6932C39.4085 40.8896 39.6749 41 39.9527 41C40.2304 41 40.4968 40.8896 40.6932 40.6932C40.8896 40.4968 41 40.2304 41 39.9527C41 39.6749 40.8896 39.4085 40.6932 39.2121L22.4812 21Z" fill="black" stroke="black"/>
</svg>
