<svg width="147" height="152" viewBox="0 0 147 152" fill="none" xmlns="http://www.w3.org/2000/svg">
<g opacity="0.5" filter="url(#filter0_b)">
<circle cx="22.2572" cy="22.2572" r="18.7572" stroke="white" stroke-width="3"/>
<circle cx="124.609" cy="22.2572" r="18.7572" stroke="white" stroke-width="3"/>
<circle cx="124.609" cy="129.407" r="18.7572" stroke="white" stroke-width="3"/>
<path d="M124.342 96.354L124.361 94.8542L120.477 94.8036L123.319 97.4515L124.342 96.354ZM124.344 96.3559L124.411 97.8544L127.981 97.6945L125.366 95.2583L124.344 96.3559ZM99.822 104.885L100.958 105.865L99.822 104.885ZM94.2246 127.008L93.2028 128.106L96.0031 130.712L95.7206 126.897L94.2246 127.008ZM94.0669 126.861L95.0887 125.763L92.0646 122.949L92.5785 127.048L94.0669 126.861ZM75.065 109.179L74.9851 110.677L79.1134 110.897L76.0868 108.081L75.065 109.179ZM75.0336 109.15L75.0609 107.65L71.1434 107.579L74.0118 110.248L75.0336 109.15ZM97.1566 102.22L96.1154 101.14L97.1566 102.22ZM104.353 77.6979L105.377 76.6013L102.799 74.1957L102.853 77.721L104.353 77.6979ZM104.421 77.7616L103.398 78.8582L106.23 81.5017L105.917 77.6401L104.421 77.7616ZM124.611 97.8558C136.628 97.8558 146.369 88.1148 146.369 76.0986H143.369C143.369 86.4579 134.971 94.8558 124.611 94.8558V97.8558ZM124.322 97.8539C124.419 97.8552 124.515 97.8558 124.611 97.8558V94.8558C124.528 94.8558 124.445 94.8552 124.361 94.8542L124.322 97.8539ZM125.366 95.2583L125.364 95.2565L123.319 97.4515L123.321 97.4534L125.366 95.2583ZM100.958 105.865C103.944 102.401 109.634 100.347 114.904 99.1868C117.487 98.6182 119.873 98.2842 121.614 98.0926C122.483 97.9969 123.188 97.937 123.674 97.9012C123.916 97.8834 124.104 97.8715 124.229 97.8642C124.292 97.8605 124.339 97.858 124.37 97.8564C124.385 97.8556 124.396 97.8551 124.403 97.8547C124.406 97.8546 124.409 97.8545 124.41 97.8544C124.411 97.8544 124.411 97.8543 124.411 97.8543C124.411 97.8543 124.411 97.8543 124.411 97.8543C124.411 97.8543 124.411 97.8544 124.344 96.3559C124.277 94.8574 124.276 94.8574 124.276 94.8574C124.276 94.8574 124.275 94.8574 124.275 94.8574C124.274 94.8575 124.273 94.8575 124.271 94.8576C124.268 94.8578 124.264 94.8579 124.259 94.8582C124.249 94.8587 124.234 94.8594 124.215 94.8604C124.178 94.8623 124.124 94.8652 124.054 94.8693C123.915 94.8774 123.712 94.8903 123.453 94.9094C122.936 94.9475 122.194 95.0105 121.285 95.1106C119.469 95.3104 116.974 95.6594 114.259 96.257C108.934 97.4291 102.364 99.6395 98.6859 103.906L100.958 105.865ZM94.2246 127.008C95.7206 126.897 95.7206 126.898 95.7206 126.898C95.7206 126.898 95.7206 126.898 95.7206 126.898C95.7206 126.898 95.7206 126.898 95.7206 126.898C95.7205 126.897 95.7204 126.895 95.7202 126.893C95.7199 126.888 95.7193 126.879 95.7185 126.868C95.717 126.844 95.7147 126.808 95.7118 126.758C95.7061 126.66 95.6984 126.51 95.6907 126.315C95.6753 125.926 95.6602 125.354 95.6622 124.643C95.6662 123.217 95.739 121.239 96.0131 119.03C96.5684 114.555 97.9208 109.388 100.958 105.865L98.6859 103.906C95.0597 108.112 93.6134 114.007 93.0359 118.661C92.7436 121.017 92.6665 123.119 92.6622 124.634C92.66 125.393 92.6761 126.006 92.693 126.434C92.7015 126.648 92.7101 126.815 92.7168 126.931C92.7201 126.989 92.723 127.034 92.7251 127.065C92.7261 127.081 92.7269 127.094 92.7276 127.103C92.7279 127.107 92.7281 127.111 92.7283 127.113C92.7284 127.115 92.7285 127.116 92.7286 127.117C92.7286 127.117 92.7287 127.118 92.7287 127.118C92.7287 127.119 92.7287 127.119 94.2246 127.008ZM93.045 127.959L93.2028 128.106L95.2465 125.91L95.0887 125.763L93.045 127.959ZM95.7253 129.407C95.7253 128.482 95.6675 127.57 95.5552 126.675L92.5785 127.048C92.6753 127.82 92.7253 128.607 92.7253 129.407H95.7253ZM73.9681 151.164C85.9843 151.164 95.7253 141.423 95.7253 129.407H92.7253C92.7253 139.766 84.3274 148.164 73.9681 148.164V151.164ZM52.2109 129.407C52.2109 141.423 61.952 151.164 73.9681 151.164V148.164C63.6088 148.164 55.2109 139.766 55.2109 129.407H52.2109ZM73.9681 107.65C61.952 107.65 52.2109 117.391 52.2109 129.407H55.2109C55.2109 119.048 63.6088 110.65 73.9681 110.65V107.65ZM75.1449 107.681C74.7551 107.66 74.3628 107.65 73.9681 107.65V110.65C74.3094 110.65 74.6485 110.659 74.9851 110.677L75.1449 107.681ZM74.0118 110.248L74.0432 110.277L76.0868 108.081L76.0555 108.052L74.0118 110.248ZM96.1154 101.14C92.7084 104.425 87.5385 106.091 83.029 106.908C80.8031 107.311 78.7994 107.497 77.353 107.582C76.6308 107.624 76.0503 107.641 75.6537 107.647C75.4555 107.651 75.3034 107.651 75.2028 107.651C75.1525 107.651 75.1151 107.651 75.0912 107.65C75.0793 107.65 75.0707 107.65 75.0656 107.65C75.0631 107.65 75.0614 107.65 75.0606 107.65C75.0602 107.65 75.0601 107.65 75.0601 107.65C75.0601 107.65 75.0603 107.65 75.0603 107.65C75.0606 107.65 75.0609 107.65 75.0336 109.15C75.0064 110.65 75.0068 110.65 75.0073 110.65C75.0075 110.65 75.008 110.65 75.0085 110.65C75.0094 110.65 75.0106 110.65 75.012 110.65C75.0148 110.65 75.0184 110.65 75.0229 110.65C75.032 110.65 75.0446 110.65 75.0606 110.65C75.0927 110.651 75.1385 110.651 75.1974 110.651C75.3152 110.651 75.4854 110.651 75.7026 110.647C76.1368 110.64 76.7599 110.622 77.5287 110.576C79.0642 110.486 81.1919 110.289 83.5638 109.86C88.25 109.011 94.1417 107.211 98.1978 103.3L96.1154 101.14ZM104.353 77.6979C102.853 77.721 102.853 77.7207 102.853 77.7206C102.853 77.7206 102.853 77.7205 102.853 77.7205C102.853 77.7206 102.853 77.721 102.853 77.7216C102.853 77.7228 102.853 77.7251 102.854 77.7284C102.854 77.735 102.854 77.7457 102.854 77.7604C102.854 77.7898 102.854 77.8352 102.854 77.8958C102.855 78.0169 102.854 78.1985 102.85 78.434C102.843 78.9052 102.825 79.591 102.78 80.4384C102.691 82.1355 102.496 84.4684 102.074 87.015C101.215 92.2027 99.4729 97.9024 96.1154 101.14L98.1978 103.3C102.304 99.3405 104.16 92.7793 105.033 87.5052C105.478 84.8209 105.682 82.3727 105.776 80.5965C105.823 79.7072 105.842 78.9833 105.85 78.4788C105.854 78.2265 105.855 78.0289 105.854 77.8927C105.854 77.8246 105.854 77.7719 105.854 77.7353C105.854 77.717 105.853 77.7027 105.853 77.6926C105.853 77.6876 105.853 77.6836 105.853 77.6806C105.853 77.6791 105.853 77.6779 105.853 77.6769C105.853 77.6764 105.853 77.6759 105.853 77.6757C105.853 77.6752 105.853 77.6749 104.353 77.6979ZM105.445 76.665L105.377 76.6013L103.33 78.7945L103.398 78.8582L105.445 76.665ZM102.854 76.0986C102.854 76.6991 102.879 77.2943 102.926 77.8831L105.917 77.6401C105.875 77.132 105.854 76.6179 105.854 76.0986H102.854ZM124.611 54.3414C112.595 54.3414 102.854 64.0825 102.854 76.0986H105.854C105.854 65.7393 114.252 57.3414 124.611 57.3414V54.3414ZM146.369 76.0986C146.369 64.0825 136.628 54.3414 124.611 54.3414V57.3414C134.971 57.3414 143.369 65.7393 143.369 76.0986H146.369Z" fill="white"/>
<path d="M72.631 95.2879L72.6505 93.788L68.7715 93.7375L71.6075 96.3845L72.631 95.2879ZM72.6329 95.2897L72.7 96.7882L76.2658 96.6285L73.6564 94.1931L72.6329 95.2897ZM48.1111 103.819L49.2472 104.798L48.1111 103.819ZM42.5137 125.942L41.4919 127.04L44.2922 129.646L44.0096 125.831L42.5137 125.942ZM42.3559 125.795L43.3778 124.697L40.3537 121.883L40.8676 125.982L42.3559 125.795ZM23.3541 108.113L23.2741 109.611L27.4024 109.831L24.3759 107.015L23.3541 108.113ZM23.3227 108.084L23.35 106.584L19.4325 106.513L22.3009 109.182L23.3227 108.084ZM45.4457 101.154L44.4045 100.074L45.4457 101.154ZM52.6423 76.6318L53.6658 75.5352L51.0882 73.1295L51.1425 76.6548L52.6423 76.6318ZM52.7105 76.6954L51.687 77.792L54.5193 80.4355L54.2056 76.5739L52.7105 76.6954ZM72.9004 96.7896C84.9166 96.7896 94.6576 87.0486 94.6576 75.0324H91.6576C91.6576 85.3918 83.2597 93.7896 72.9004 93.7896V96.7896ZM72.6115 96.7877C72.7076 96.789 72.8039 96.7896 72.9004 96.7896V93.7896C72.817 93.7896 72.7337 93.7891 72.6505 93.788L72.6115 96.7877ZM73.6564 94.1931L73.6545 94.1913L71.6075 96.3845L71.6095 96.3863L73.6564 94.1931ZM49.2472 104.798C52.2329 101.335 57.9233 99.2807 63.1933 98.1206C65.7764 97.552 68.1618 97.218 69.9026 97.0264C70.7718 96.9307 71.4774 96.8709 71.9629 96.8351C72.2056 96.8172 72.3931 96.8053 72.5183 96.798C72.5809 96.7943 72.628 96.7918 72.6586 96.7902C72.6739 96.7895 72.685 96.7889 72.692 96.7886C72.6955 96.7884 72.6979 96.7883 72.6992 96.7882C72.6999 96.7882 72.7003 96.7882 72.7004 96.7882C72.7005 96.7882 72.7004 96.7882 72.7004 96.7882C72.7003 96.7882 72.7 96.7882 72.6329 95.2897C72.5658 93.7912 72.5655 93.7912 72.565 93.7912C72.5648 93.7912 72.5643 93.7913 72.5638 93.7913C72.5629 93.7913 72.5616 93.7914 72.5601 93.7915C72.5572 93.7916 72.5531 93.7918 72.548 93.792C72.5377 93.7925 72.5231 93.7932 72.5044 93.7942C72.467 93.7961 72.413 93.799 72.3432 93.8031C72.2036 93.8113 72.0009 93.8241 71.7423 93.8432C71.2251 93.8813 70.4835 93.9443 69.5743 94.0444C67.7585 94.2443 65.2629 94.5933 62.5484 95.1908C57.2234 96.363 50.6528 98.5733 46.975 102.84L49.2472 104.798ZM42.5137 125.942C44.0096 125.831 44.0096 125.832 44.0097 125.832C44.0097 125.832 44.0097 125.832 44.0097 125.832C44.0097 125.832 44.0097 125.832 44.0096 125.832C44.0096 125.831 44.0095 125.829 44.0093 125.827C44.0089 125.822 44.0084 125.813 44.0076 125.802C44.0061 125.778 44.0037 125.742 44.0009 125.692C43.9952 125.593 43.9874 125.444 43.9797 125.249C43.9643 124.859 43.9492 124.288 43.9512 123.577C43.9553 122.151 44.0281 120.172 44.3022 117.964C44.8575 113.488 46.2098 108.322 49.2472 104.798L46.975 102.84C43.3488 107.046 41.9024 112.941 41.325 117.594C41.0326 119.95 40.9555 122.053 40.9512 123.568C40.9491 124.326 40.9652 124.94 40.9821 125.368C40.9905 125.581 40.9992 125.749 41.0058 125.865C41.0092 125.923 41.012 125.968 41.0141 125.999C41.0152 126.015 41.016 126.027 41.0166 126.036C41.0169 126.041 41.0172 126.045 41.0174 126.047C41.0175 126.049 41.0176 126.05 41.0177 126.051C41.0177 126.051 41.0177 126.052 41.0177 126.052C41.0178 126.052 41.0178 126.053 42.5137 125.942ZM41.3341 126.893L41.4919 127.04L43.5356 124.844L43.3778 124.697L41.3341 126.893ZM44.0144 128.341C44.0144 127.416 43.9566 126.504 43.8443 125.609L40.8676 125.982C40.9644 126.754 41.0144 127.541 41.0144 128.341H44.0144ZM22.2572 150.098C34.2733 150.098 44.0144 140.357 44.0144 128.341H41.0144C41.0144 138.7 32.6165 147.098 22.2572 147.098V150.098ZM0.5 128.341C0.5 140.357 10.241 150.098 22.2572 150.098V147.098C11.8979 147.098 3.5 138.7 3.5 128.341H0.5ZM22.2572 106.584C10.241 106.584 0.5 116.325 0.5 128.341H3.5C3.5 117.982 11.8979 109.584 22.2572 109.584V106.584ZM23.434 106.615C23.0442 106.594 22.6518 106.584 22.2572 106.584V109.584C22.5985 109.584 22.9376 109.593 23.2741 109.611L23.434 106.615ZM22.3009 109.182L22.3322 109.211L24.3759 107.015L24.3445 106.986L22.3009 109.182ZM44.4045 100.074C40.9974 103.359 35.8276 105.024 31.3181 105.841C29.0922 106.245 27.0885 106.431 25.6421 106.515C24.9199 106.558 24.3394 106.575 23.9428 106.581C23.7445 106.585 23.5925 106.585 23.4918 106.585C23.4415 106.585 23.4041 106.585 23.3803 106.584C23.3683 106.584 23.3598 106.584 23.3547 106.584C23.3522 106.584 23.3505 106.584 23.3497 106.584C23.3493 106.584 23.3491 106.584 23.3492 106.584C23.3492 106.584 23.3494 106.584 23.3494 106.584C23.3497 106.584 23.35 106.584 23.3227 108.084C23.2954 109.583 23.2959 109.583 23.2963 109.583C23.2966 109.583 23.2971 109.583 23.2976 109.583C23.2985 109.584 23.2997 109.584 23.3011 109.584C23.3038 109.584 23.3075 109.584 23.312 109.584C23.3211 109.584 23.3337 109.584 23.3497 109.584C23.3818 109.584 23.4276 109.585 23.4865 109.585C23.6042 109.585 23.7744 109.584 23.9916 109.581C24.4259 109.574 25.0489 109.555 25.8177 109.51C27.3533 109.42 29.4809 109.223 31.8529 108.793C36.5391 107.944 42.4307 106.145 46.4869 102.233L44.4045 100.074ZM52.6423 76.6318C51.1425 76.6548 51.1425 76.6546 51.1425 76.6544C51.1425 76.6544 51.1425 76.6543 51.1425 76.6543C51.1425 76.6544 51.1425 76.6548 51.1425 76.6554C51.1425 76.6567 51.1425 76.6589 51.1426 76.6622C51.1427 76.6688 51.1428 76.6795 51.1429 76.6943C51.1431 76.7237 51.1434 76.7691 51.1435 76.8296C51.1436 76.9507 51.1429 77.1323 51.1393 77.3679C51.1323 77.839 51.1141 78.5249 51.0694 79.3722C50.9799 81.0694 50.7846 83.4023 50.3628 85.9489C49.5037 91.1365 47.7619 96.8363 44.4045 100.074L46.4869 102.233C50.5926 98.2743 52.4491 91.7131 53.3225 86.439C53.7671 83.7547 53.9715 81.3066 54.0653 79.5303C54.1122 78.641 54.1315 77.9171 54.139 77.4127C54.1428 77.1604 54.1436 76.9628 54.1435 76.8266C54.1434 76.7585 54.1431 76.7057 54.1428 76.6691C54.1426 76.6508 54.1425 76.6366 54.1424 76.6265C54.1423 76.6214 54.1423 76.6174 54.1422 76.6144C54.1422 76.6129 54.1422 76.6117 54.1422 76.6108C54.1422 76.6103 54.1421 76.6098 54.1421 76.6095C54.1421 76.6091 54.1421 76.6087 52.6423 76.6318ZM53.734 75.5988L53.6658 75.5352L51.6188 77.7283L51.687 77.792L53.734 75.5988ZM51.1432 75.0324C51.1432 75.633 51.1676 76.2281 51.2154 76.8169L54.2056 76.5739C54.1643 76.0659 54.1432 75.5518 54.1432 75.0324H51.1432ZM72.9004 53.2753C60.8842 53.2753 51.1432 63.0163 51.1432 75.0324H54.1432C54.1432 64.6731 62.5411 56.2753 72.9004 56.2753V53.2753ZM94.6576 75.0324C94.6576 63.0163 84.9166 53.2753 72.9004 53.2753V56.2753C83.2597 56.2753 91.6576 64.6731 91.6576 75.0324H94.6576Z" fill="white"/>
<path d="M72.631 42.5126L72.6505 41.0127L68.7663 40.9622L71.6085 43.6101L72.631 42.5126ZM72.6329 42.5144L72.7 44.0129L76.2703 43.8531L73.6554 41.4169L72.6329 42.5144ZM48.1111 51.0438L49.2472 52.0232L48.1111 51.0438ZM42.5137 73.1667L41.4919 74.2648L44.2922 76.8707L44.0096 73.0559L42.5137 73.1667ZM42.3559 73.0199L43.3778 71.9218L40.3537 69.1077L40.8676 73.2065L42.3559 73.0199ZM23.354 55.3376L23.2741 56.8355L27.4024 57.0558L24.3759 54.2395L23.354 55.3376ZM23.3227 55.3084L23.35 53.8087L19.4325 53.7375L22.3009 56.4066L23.3227 55.3084ZM45.4457 48.3783L44.4045 47.2986L45.4457 48.3783ZM52.6423 23.8565L53.6658 22.7599L51.0882 20.3542L51.1425 23.8796L52.6423 23.8565ZM52.7105 23.9202L51.687 25.0167L54.5193 27.6602L54.2056 23.7987L52.7105 23.9202ZM72.9004 44.0144C84.9166 44.0144 94.6576 34.2733 94.6576 22.2572H91.6576C91.6576 32.6165 83.2597 41.0144 72.9004 41.0144V44.0144ZM72.6115 44.0125C72.7076 44.0137 72.8039 44.0144 72.9004 44.0144V41.0144C72.817 41.0144 72.7337 41.0138 72.6505 41.0127L72.6115 44.0125ZM73.6554 41.4169L73.6535 41.4151L71.6085 43.6101L71.6105 43.6119L73.6554 41.4169ZM49.2472 52.0232C52.2329 48.5598 57.9233 46.5054 63.1933 45.3454C65.7764 44.7768 68.1618 44.4427 69.9026 44.2511C70.7718 44.1555 71.4774 44.0956 71.9629 44.0598C72.2056 44.0419 72.3931 44.0301 72.5183 44.0227C72.5809 44.0191 72.628 44.0165 72.6586 44.015C72.6739 44.0142 72.685 44.0136 72.692 44.0133C72.6955 44.0131 72.6979 44.013 72.6992 44.013C72.6999 44.0129 72.7003 44.0129 72.7004 44.0129C72.7005 44.0129 72.7004 44.0129 72.7004 44.0129C72.7003 44.0129 72.7 44.0129 72.6329 42.5144C72.5658 41.0159 72.5655 41.0159 72.565 41.016C72.5648 41.016 72.5643 41.016 72.5638 41.016C72.5629 41.0161 72.5616 41.0161 72.5601 41.0162C72.5572 41.0163 72.5531 41.0165 72.548 41.0168C72.5377 41.0173 72.5231 41.018 72.5044 41.0189C72.467 41.0209 72.413 41.0238 72.3432 41.0278C72.2036 41.036 72.0009 41.0489 71.7423 41.0679C71.2252 41.1061 70.4835 41.1691 69.5743 41.2691C67.7585 41.469 65.2629 41.818 62.5484 42.4155C57.2234 43.5877 50.6528 45.798 46.975 50.0644L49.2472 52.0232ZM42.5137 73.1667C44.0096 73.0559 44.0096 73.0562 44.0097 73.0565C44.0097 73.0565 44.0097 73.0567 44.0097 73.0567C44.0097 73.0568 44.0097 73.0566 44.0096 73.0562C44.0096 73.0555 44.0095 73.0539 44.0093 73.0514C44.0089 73.0464 44.0084 73.0381 44.0076 73.0264C44.0061 73.003 44.0037 72.9663 44.0009 72.9169C43.9952 72.8182 43.9874 72.6688 43.9797 72.474C43.9643 72.0841 43.9492 71.513 43.9512 70.8013C43.9553 69.3757 44.0281 67.3972 44.3022 65.1886C44.8575 60.7132 46.2098 55.5465 49.2472 52.0232L46.975 50.0644C43.3488 54.2707 41.9024 60.1655 41.325 64.8192C41.0326 67.1751 40.9555 69.278 40.9512 70.7928C40.9491 71.5512 40.9652 72.1649 40.9821 72.5924C40.9905 72.8062 40.9992 72.9736 41.0058 73.0895C41.0092 73.1474 41.012 73.1925 41.0141 73.224C41.0152 73.2398 41.016 73.2522 41.0166 73.2612C41.0169 73.2656 41.0172 73.2692 41.0174 73.272C41.0175 73.2733 41.0176 73.2745 41.0177 73.2754C41.0177 73.2759 41.0177 73.2764 41.0177 73.2766C41.0178 73.2771 41.0178 73.2775 42.5137 73.1667ZM41.3341 74.118L41.4919 74.2648L43.5356 72.0686L43.3778 71.9218L41.3341 74.118ZM44.0144 75.5656C44.0144 74.6409 43.9566 73.7289 43.8443 72.8333L40.8676 73.2065C40.9644 73.9786 41.0144 74.7659 41.0144 75.5656H44.0144ZM22.2572 97.3228C34.2733 97.3228 44.0144 87.5818 44.0144 75.5656H41.0144C41.0144 85.9249 32.6165 94.3228 22.2572 94.3228V97.3228ZM0.5 75.5656C0.5 87.5818 10.241 97.3228 22.2572 97.3228V94.3228C11.8979 94.3228 3.5 85.9249 3.5 75.5656H0.5ZM22.2572 53.8084C10.241 53.8084 0.5 63.5494 0.5 75.5656H3.5C3.5 65.2063 11.8979 56.8084 22.2572 56.8084V53.8084ZM23.434 53.8397C23.0442 53.8189 22.6518 53.8084 22.2572 53.8084V56.8084C22.5985 56.8084 22.9376 56.8175 23.2741 56.8355L23.434 53.8397ZM22.3009 56.4066L22.3322 56.4357L24.3759 54.2395L24.3445 54.2103L22.3009 56.4066ZM44.4045 47.2986C40.9974 50.5839 35.8276 52.2492 31.3181 53.0662C29.0922 53.4694 27.0885 53.6554 25.6421 53.7402C24.9199 53.7826 24.3394 53.7996 23.9428 53.806C23.7445 53.8093 23.5925 53.8099 23.4918 53.8097C23.4415 53.8096 23.4041 53.8093 23.3802 53.8091C23.3683 53.8089 23.3598 53.8088 23.3547 53.8088C23.3522 53.8087 23.3505 53.8087 23.3497 53.8087C23.3493 53.8087 23.3491 53.8087 23.3492 53.8087C23.3492 53.8087 23.3494 53.8087 23.3494 53.8087C23.3497 53.8087 23.35 53.8087 23.3227 55.3084C23.2954 56.8082 23.2959 56.8082 23.2963 56.8082C23.2966 56.8082 23.2971 56.8082 23.2976 56.8082C23.2985 56.8082 23.2997 56.8083 23.3011 56.8083C23.3038 56.8083 23.3075 56.8084 23.312 56.8084C23.3211 56.8086 23.3337 56.8087 23.3497 56.8089C23.3818 56.8092 23.4276 56.8096 23.4865 56.8097C23.6042 56.8099 23.7744 56.8092 23.9916 56.8056C24.4259 56.7986 25.0489 56.7802 25.8177 56.7351C27.3533 56.645 29.4809 56.4478 31.8529 56.0181C36.5391 55.1692 42.4307 53.3694 46.4869 49.4581L44.4045 47.2986ZM52.6423 23.8565C51.1425 23.8796 51.1425 23.8793 51.1425 23.8791C51.1425 23.8792 51.1425 23.879 51.1425 23.8791C51.1425 23.8792 51.1425 23.8795 51.1425 23.8802C51.1425 23.8814 51.1425 23.8837 51.1426 23.887C51.1427 23.8936 51.1428 23.9043 51.1429 23.919C51.1431 23.9484 51.1434 23.9938 51.1435 24.0543C51.1436 24.1754 51.1429 24.3571 51.1393 24.5926C51.1323 25.0637 51.1141 25.7496 51.0694 26.597C50.9799 28.2941 50.7846 30.627 50.3628 33.1736C49.5037 38.3613 47.7619 44.061 44.4045 47.2986L46.4869 49.4581C50.5926 45.499 52.4491 38.9379 53.3225 33.6638C53.7671 30.9795 53.9715 28.5313 54.0653 26.755C54.1122 25.8657 54.1315 25.1418 54.139 24.6374C54.1428 24.3851 54.1436 24.1875 54.1435 24.0513C54.1434 23.9832 54.1431 23.9304 54.1428 23.8938C54.1426 23.8755 54.1425 23.8613 54.1424 23.8512C54.1423 23.8461 54.1423 23.8421 54.1422 23.8392C54.1422 23.8377 54.1422 23.8365 54.1422 23.8355C54.1422 23.835 54.1421 23.8345 54.1421 23.8343C54.1421 23.8338 54.1421 23.8334 52.6423 23.8565ZM53.734 22.8236L53.6658 22.7599L51.6188 24.9531L51.687 25.0167L53.734 22.8236ZM51.1432 22.2572C51.1432 22.8577 51.1676 23.4528 51.2154 24.0416L54.2056 23.7987C54.1643 23.2906 54.1432 22.7765 54.1432 22.2572H51.1432ZM72.9004 0.5C60.8842 0.5 51.1432 10.241 51.1432 22.2572H54.1432C54.1432 11.8979 62.5411 3.5 72.9004 3.5V0.5ZM94.6576 22.2572C94.6576 10.241 84.9166 0.5 72.9004 0.5V3.5C83.2597 3.5 91.6576 11.8979 91.6576 22.2572H94.6576Z" fill="white"/>
</g>
<defs>
<filter id="filter0_b" x="-7.5" y="-7.5" width="161.869" height="166.664" filterUnits="userSpaceOnUse" color-interpolation-filters="sRGB">
<feFlood flood-opacity="0" result="BackgroundImageFix"/>
<feGaussianBlur in="BackgroundImage" stdDeviation="4"/>
<feComposite in2="SourceAlpha" operator="in" result="effect1_backgroundBlur"/>
<feBlend mode="normal" in="SourceGraphic" in2="effect1_backgroundBlur" result="shape"/>
</filter>
</defs>
</svg>
