<svg width="53" height="52" viewBox="0 0 53 52" fill="none" xmlns="http://www.w3.org/2000/svg">
<path d="M26.5 1.22501C12.5729 1.22501 1.24219 12.5186 1.24219 26.4C1.24219 40.2814 12.5729 51.575 26.5 51.575C40.4271 51.575 51.7578 40.2814 51.7578 26.4C51.7578 12.5186 40.4271 1.22501 26.5 1.22501ZM31.1617 27.2455C33.7809 24.634 37.0692 23.075 39.9572 23.075C40.4204 23.075 40.8665 23.1159 41.2887 23.1976C41.8939 26.2813 40.3232 30.2048 37.2265 33.2913C34.6063 35.9029 31.319 37.4628 28.431 37.4628C27.9688 37.4628 27.5218 37.4219 27.0995 37.3402C27.0261 36.964 26.987 36.5755 26.9766 36.1784V36.09C26.9356 33.2438 28.4692 29.9283 31.1617 27.2455ZM26.9766 50.6127V38.2693C27.4436 38.3558 27.9268 38.4118 28.431 38.4118C31.5659 38.4118 35.1058 36.7484 37.9003 33.962C41.3249 30.5515 42.9929 26.1245 42.1513 22.6855L42.0836 22.4053L41.8015 22.3369C41.2229 22.1963 40.6015 22.125 39.9562 22.125C36.8214 22.125 33.2815 23.7875 30.4869 26.5739C28.8857 28.1689 27.6762 29.9863 26.9194 31.8198C26.6706 29.6509 25.5431 27.6797 23.795 26.3421C25.6489 23.9234 25.4735 20.4435 23.2565 18.2329L20.2227 15.21L18.875 16.5533L13.8206 11.5154L13.1467 12.1871L18.2011 17.2249L13.4841 21.9274L8.42875 16.8886L7.75489 17.5603L12.8103 22.6L11.4616 23.9443L14.4944 26.9672C15.6649 28.1319 17.2204 28.775 18.875 28.775C20.4858 28.775 22.0012 28.1613 23.1612 27.0517C24.954 28.396 26.0234 30.4917 26.0234 32.7413V35.8202C26.0234 35.8278 26.0234 35.8354 26.0234 35.843V50.6127C12.8417 50.3581 2.19531 39.5984 2.19531 26.4C2.19531 13.0421 13.0981 2.17501 26.5 2.17501C39.9019 2.17501 50.8047 13.0421 50.8047 26.4C50.8047 39.5984 40.1583 50.3581 26.9766 50.6127ZM20.2227 16.5533L22.5827 18.9045C24.6262 20.9413 24.6262 24.2568 22.5827 26.2936C21.5924 27.2816 20.2751 27.825 18.875 27.825C17.4749 27.825 16.1586 27.2816 15.1683 26.2946L12.8093 23.9433L20.2227 16.5533Z" fill="#33507E" stroke="#33507E" stroke-width="0.7"/>
</svg>
