<svg width="55" height="51" viewBox="0 0 55 51" fill="none" xmlns="http://www.w3.org/2000/svg">
<path d="M18.6921 5.68512C13.2694 7.98918 8.91992 12.354 6.62305 17.7945H8.54822C10.6286 13.3219 14.234 9.70362 18.6921 7.61681V5.68512Z" fill="#33507E"/>
<path d="M36.3066 5.68512V7.61681C40.7641 9.70421 44.3702 13.3219 46.4499 17.7945H48.3751C46.0788 12.354 41.7293 7.98918 36.3066 5.68512Z" fill="#33507E"/>
<path d="M18.6921 47.5792V45.6475C14.234 43.5601 10.6286 39.9424 8.54822 35.4692H6.62305C8.91992 40.9103 13.2694 45.2751 18.6921 47.5792Z" fill="#33507E"/>
<path d="M46.4499 35.4692C44.3696 39.9424 40.7641 43.5601 36.3066 45.6475V47.5792C41.7293 45.2751 46.0788 40.9103 48.3757 35.4692H46.4499Z" fill="#33507E"/>
<path d="M30.026 35.4692C29.2867 35.0205 28.4235 34.7576 27.4984 34.7576C26.5733 34.7576 25.7101 35.0205 24.9709 35.4692C23.549 36.3318 22.5938 37.8935 22.5938 39.6789C22.5938 42.3927 24.7944 44.6002 27.4984 44.6002C30.2024 44.6002 32.4031 42.3921 32.4031 39.6789C32.4031 37.8941 31.4479 36.3324 30.026 35.4692ZM27.4984 42.8402C25.7615 42.8402 24.3478 41.4224 24.3478 39.6789C24.3478 37.9355 25.7609 36.5177 27.4984 36.5177C29.236 36.5177 30.649 37.9355 30.649 39.6789C30.649 41.4224 29.2354 42.8402 27.4984 42.8402Z" fill="#33507E"/>
<path d="M21.1033 50.8316H21.9806C21.9806 48.7377 23.6787 47.034 25.7655 47.034H29.2353C31.3221 47.034 33.0201 48.7377 33.0201 50.8316H33.8975H34.7748C34.7748 47.7669 32.2897 45.2739 29.2359 45.2739H25.7655C22.7111 45.2739 20.2266 47.7674 20.2266 50.8316H21.1033Z" fill="#33507E"/>
<path d="M32.4031 5.29025C32.4031 2.57653 30.2024 0.368958 27.4984 0.368958C24.7944 0.368958 22.5938 2.57712 22.5938 5.29025C22.5938 8.00339 24.7944 10.2115 27.4984 10.2115C30.2024 10.2115 32.4031 8.00398 32.4031 5.29025ZM24.3478 5.29025C24.3478 3.54741 25.7609 2.12897 27.4984 2.12897C29.236 2.12897 30.649 3.54681 30.649 5.29025C30.649 7.03369 29.236 8.45153 27.4984 8.45153C25.7609 8.45153 24.3478 7.0331 24.3478 5.29025Z" fill="#33507E"/>
<path d="M20.2246 16.4424H21.9793C21.9793 14.3484 23.6773 12.6453 25.7641 12.6453H29.2339C31.3207 12.6453 33.0182 14.3484 33.0188 16.4424H34.7734C34.7734 13.3776 32.2883 10.8847 29.2345 10.8847H25.7641C22.7097 10.8847 20.2246 13.3776 20.2246 16.4424Z" fill="#33507E"/>
<path d="M46.7758 18.155C44.0712 18.155 41.8711 20.3632 41.8711 23.0763C41.8711 25.7894 44.0718 27.9976 46.7758 27.9976C49.4803 27.9976 51.6804 25.7894 51.6804 23.0763C51.6804 20.3632 49.4803 18.155 46.7758 18.155ZM46.7758 26.2376C45.0388 26.2376 43.6252 24.8197 43.6252 23.0763C43.6252 21.3334 45.0382 19.915 46.7758 19.915C48.5127 19.915 49.9264 21.3329 49.9264 23.0763C49.9258 24.8197 48.5127 26.2376 46.7758 26.2376Z" fill="#33507E"/>
<path d="M52.2955 34.229H53.1728H54.0502C54.0502 31.1642 51.5651 28.6713 48.5113 28.6713H45.0409C41.9864 28.6713 39.502 31.1648 39.502 34.229H40.3793H41.2566C41.2566 32.1351 42.9546 30.4313 45.0415 30.4313H48.5113C50.5981 30.4313 52.2955 32.1351 52.2955 34.229Z" fill="#33507E"/>
<path d="M8.22303 18.155C5.51847 18.155 3.31836 20.3632 3.31836 23.0763C3.31836 25.7894 5.51906 27.9976 8.22303 27.9976C10.927 27.9976 13.1277 25.7894 13.1277 23.0763C13.1277 20.3632 10.9276 18.155 8.22303 18.155ZM8.22303 26.2376C6.48607 26.2376 5.07243 24.8197 5.07243 23.0763C5.07243 21.3334 6.48548 19.915 8.22303 19.915C9.96058 19.915 11.3736 21.3329 11.3736 23.0763C11.3736 24.8197 9.96058 26.2376 8.22303 26.2376Z" fill="#33507E"/>
<path d="M2.70388 34.229C2.70388 32.1351 4.4019 30.4313 6.48873 30.4313H9.95852C12.0453 30.4313 13.7434 32.1351 13.7434 34.229H14.6207H15.498C15.498 31.1642 13.0129 28.6713 9.95911 28.6713H6.48932C3.4343 28.6707 0.949219 31.1642 0.949219 34.229H1.82655H2.70388Z" fill="#33507E"/>
</svg>
