<svg width="52" height="52" viewBox="0 0 52 52" fill="none" xmlns="http://www.w3.org/2000/svg">
<circle cx="26" cy="26" r="25" stroke="#33507E" stroke-width="1.7"/>
<path d="M41.1721 14.4431C41.0133 14.2842 40.7822 14.2169 40.564 14.2653L34.5466 15.5862C34.3107 15.6377 34.122 15.8141 34.0546 16.0456C33.9869 16.2766 34.0507 16.5269 34.2214 16.6972L36.1028 18.5786L27.6434 27.039L23.3384 22.734C23.0806 22.4762 22.663 22.4762 22.4052 22.734L16.0503 29.0889C15.5135 28.7682 14.8887 28.5803 14.2194 28.5803C12.243 28.5803 10.6348 30.1885 10.6348 32.165C10.6348 34.1414 12.243 35.7496 14.2194 35.7496C16.1959 35.7496 17.8041 34.1414 17.8041 32.165C17.8041 31.3347 17.5177 30.5717 17.042 29.9632L22.8716 24.1336L27.1766 28.4386C27.4238 28.6859 27.8625 28.6859 28.1098 28.4386L37.0361 19.5119L38.9175 21.3933C39.0429 21.5187 39.2114 21.5865 39.3844 21.5865C39.4464 21.5865 39.5084 21.5777 39.5696 21.5596C39.801 21.4923 39.9775 21.3036 40.029 21.0677L41.3498 15.0503C41.3987 14.8316 41.3314 14.6024 41.1721 14.4431ZM14.2194 34.4301C12.9707 34.4301 11.9548 33.4137 11.9548 32.1654C11.9548 30.9167 12.9712 29.9007 14.2194 29.9007C15.4677 29.9007 16.4841 30.9171 16.4841 32.1654C16.4841 33.4137 15.4677 34.4301 14.2194 34.4301ZM37.9698 18.5791L37.0365 17.6458L36.0078 16.6171L38.6438 16.0385L39.8398 15.7758L39.5771 16.9718L38.9985 19.6078L37.9698 18.5791Z" fill="#33507E" stroke="#33507E" stroke-width="0.7"/>
</svg>
