<svg width="187" height="47" viewBox="0 0 187 47" fill="none" xmlns="http://www.w3.org/2000/svg">
<path fill-rule="evenodd" clip-rule="evenodd" d="M0 0V32.9999H32.9999V0H0ZM18.9555 3.00002H27.0002L3.00002 27.0002V18.9555L18.9555 3.00002ZM30.0002 12.9385V5.00016L5.00016 30.0002H12.9385L30.0002 12.9385ZM3.00002 15.0001V3.00002H15.0001L3.00002 15.0001ZM29.9999 29.9999V16.9999L16.9999 29.9999H29.9999Z" transform="translate(23.5 0.165527) rotate(45)" fill="#BCAC95"/>
<path fill-rule="evenodd" clip-rule="evenodd" d="M0 7C0 5.93333 0.186833 4.97 0.560506 4.11C0.934178 3.25 1.4413 2.51334 2.08188 1.9C2.72246 1.28666 3.46979 0.816668 4.3239 0.49C5.17801 0.163332 6.08549 0 7.04636 0C7.80705 0 8.48432 0.0733326 9.07819 0.22C9.67206 0.366667 10.1825 0.533332 10.6096 0.72C11.1034 0.933334 11.5304 1.16667 11.8907 1.42L9.78883 5.12C9.5753 4.96 9.34176 4.80667 9.0882 4.66C8.86133 4.55333 8.59109 4.45 8.27747 4.35C7.96385 4.25 7.60687 4.2 7.2065 4.2C6.79279 4.2 6.41245 4.27333 6.06547 4.42C5.71849 4.56667 5.41489 4.76667 5.15465 5.02C4.89441 5.27333 4.6909 5.57 4.5441 5.91C4.3973 6.25 4.3239 6.61333 4.3239 7C4.3239 7.38667 4.40064 7.75 4.55411 8.09C4.70758 8.43 4.91777 8.72666 5.18468 8.98C5.45159 9.23333 5.7652 9.43333 6.12553 9.58C6.48585 9.72667 6.87954 9.8 7.30659 9.8C7.73365 9.8 8.11399 9.74667 8.44762 9.64C8.78126 9.53333 9.06151 9.41333 9.28838 9.28C9.55529 9.13333 9.78883 8.96 9.98901 8.76L12.0909 12.46C11.7306 12.7533 11.3035 13.0133 10.8098 13.24C10.3827 13.4267 9.86891 13.6 9.26836 13.76C8.66782 13.92 7.98054 14 7.2065 14C6.16556 14 5.2047 13.83 4.3239 13.49C3.4431 13.15 2.68242 12.6733 2.04184 12.06C1.40126 11.4467 0.900815 10.71 0.540488 9.85C0.180161 8.99 0 8.04 0 7ZM12.5913 0.319824H16.1145L19.5976 5.43982L23.0608 0.319824H26.5839V13.6598H22.3201V8.85982L19.5976 12.8598L16.8552 8.85982V13.6598H12.5913V0.319824ZM31.9488 0.319824H35.1517L40.2163 13.6598H36.0125L35.5721 12.4598H31.5285L31.0881 13.6598H26.8843L31.9488 0.319824ZM34.451 9.52018L33.5502 7.18018L32.6494 9.52018H34.451ZM50.906 5.39982C50.906 6.31983 50.7458 7.10315 50.4255 7.74982C50.1053 8.39649 49.6682 8.91982 49.1144 9.31982C48.5605 9.71983 47.9133 10.0132 47.1726 10.1998C46.4319 10.3865 45.6346 10.4798 44.7804 10.4798V13.6598H40.5166V0.319824H44.7804C45.6346 0.319824 46.4319 0.413157 47.1726 0.599824C47.9133 0.786492 48.5605 1.07982 49.1144 1.47982C49.6682 1.87983 50.1053 2.40315 50.4255 3.04982C50.7458 3.69649 50.906 4.47982 50.906 5.39982ZM44.7803 6.87992H44.9604C45.5209 6.87992 45.9246 6.74992 46.1715 6.48992C46.4184 6.22992 46.5419 5.86659 46.5419 5.39992C46.5419 4.93325 46.4184 4.56992 46.1715 4.30992C45.9246 4.04992 45.5209 3.91992 44.9604 3.91992H44.7803V6.87992ZM53.6683 3.81982H51.2061V0.319824H60.5345V3.81982H58.0722V13.6598H53.6683V3.81982ZM72.4288 7C72.4288 8.04 72.2486 8.99 71.8883 9.85C71.528 10.71 71.0275 11.4467 70.387 12.06C69.7464 12.6733 68.9857 13.15 68.1049 13.49C67.2241 13.83 66.2632 14 65.2223 14C64.6084 14 64.0479 13.9533 63.5408 13.86C63.0337 13.7667 62.5766 13.6433 62.1695 13.49C61.7625 13.3367 61.4089 13.17 61.1086 12.99C60.8083 12.81 60.5514 12.6333 60.3379 12.46L62.4398 8.76C62.8001 9.10667 63.2172 9.36667 63.6909 9.54C64.1647 9.71333 64.6418 9.8 65.1222 9.8C65.6293 9.8 66.0964 9.69333 66.5235 9.48C66.9505 9.26667 67.2975 8.98 67.5644 8.62H63.9411V5.3H67.5244C67.2575 4.96667 66.9272 4.7 66.5335 4.5C66.1398 4.3 65.7027 4.2 65.2223 4.2C64.7285 4.2 64.2648 4.28667 63.831 4.46C63.3973 4.63333 63.0003 4.85333 62.64 5.12L60.5381 1.42C60.7516 1.26 61.0118 1.09667 61.3188 0.93C61.6257 0.763332 61.9794 0.610001 62.3797 0.47C62.7801 0.329999 63.2305 0.216667 63.731 0.13C64.2314 0.0433329 64.7819 0 65.3824 0C66.3433 0 67.2508 0.163332 68.1049 0.49C68.959 0.816668 69.7063 1.28666 70.3469 1.9C70.9875 2.51334 71.4946 3.25 71.8683 4.11C72.242 4.97 72.4288 5.93333 72.4288 7ZM73.5298 0.319824H77.7936V4.85982H80.1758V0.319824H84.4596V13.6598H80.1758V8.71982H77.7936V13.6598H73.5298V0.319824ZM85.8608 0.319824H93.7279V3.81982H90.1247V5.29982H93.6679V8.61982H90.1247V10.1598H93.8681V13.6598H85.8608V0.319824ZM105.459 5.39982C105.459 6.31983 105.299 7.10315 104.978 7.74982C104.658 8.39649 104.221 8.91982 103.667 9.31982C103.113 9.71983 102.466 10.0132 101.725 10.1998C100.985 10.3865 100.187 10.4798 99.3332 10.4798V13.6598H95.0693V0.319824H99.3332C100.187 0.319824 100.985 0.413157 101.725 0.599824C102.466 0.786492 103.113 1.07982 103.667 1.47982C104.221 1.87983 104.658 2.40315 104.978 3.04982C105.299 3.69649 105.459 4.47982 105.459 5.39982ZM99.333 6.87992H99.5132C100.074 6.87992 100.477 6.74992 100.724 6.48992C100.971 6.22992 101.095 5.86659 101.095 5.39992C101.095 4.93325 100.971 4.56992 100.724 4.30992C100.477 4.04992 100.074 3.91992 99.5132 3.91992H99.333V6.87992ZM106.459 0.319824H114.587V3.81982H110.903V13.6598H106.459V0.319824ZM114.987 7C114.987 6.04 115.171 5.13334 115.538 4.28C115.905 3.42666 116.405 2.68334 117.039 2.05C117.673 1.41666 118.417 0.916669 119.271 0.55C120.125 0.183332 121.033 0 121.994 0C122.954 0 123.862 0.183332 124.716 0.55C125.57 0.916669 126.314 1.41666 126.948 2.05C127.582 2.68334 128.082 3.42666 128.449 4.28C128.816 5.13334 129 6.04 129 7C129 7.96 128.816 8.86666 128.449 9.72C128.082 10.5733 127.582 11.3167 126.948 11.95C126.314 12.5833 125.57 13.0833 124.716 13.45C123.862 13.8167 122.954 14 121.994 14C121.033 14 120.125 13.8167 119.271 13.45C118.417 13.0833 117.673 12.5833 117.039 11.95C116.405 11.3167 115.905 10.5733 115.538 9.72C115.171 8.86666 114.987 7.96 114.987 7ZM119.191 7.0002C119.191 7.38686 119.264 7.75019 119.411 8.0902C119.558 8.4302 119.758 8.72686 120.012 8.9802C120.265 9.23353 120.562 9.43353 120.902 9.5802C121.243 9.72686 121.606 9.8002 121.993 9.8002C122.38 9.8002 122.744 9.72686 123.084 9.5802C123.425 9.43353 123.722 9.23353 123.975 8.9802C124.229 8.72686 124.429 8.4302 124.576 8.0902C124.723 7.75019 124.796 7.38686 124.796 7.0002C124.796 6.61353 124.723 6.2502 124.576 5.9102C124.429 5.57019 124.229 5.27353 123.975 5.0202C123.722 4.76686 123.425 4.56686 123.084 4.4202C122.744 4.27353 122.38 4.2002 121.993 4.2002C121.606 4.2002 121.243 4.27353 120.902 4.4202C120.562 4.56686 120.265 4.76686 120.012 5.0202C119.758 5.27353 119.558 5.57019 119.411 5.9102C119.264 6.2502 119.191 6.61353 119.191 7.0002Z" transform="translate(58 17)" fill="#0F0F0F"/>
</svg>
